<?xml version="1.0" standalone="no"?>
<!DOCTYPE svg PUBLIC "-//W3C//DTD SVG 20010904//EN"
 "http://www.w3.org/TR/2001/REC-SVG-20010904/DTD/svg10.dtd">
<svg version="1.0" xmlns="http://www.w3.org/2000/svg"
 width="260.000000pt" height="260.000000pt" viewBox="0 0 260.000000 260.000000"
 preserveAspectRatio="xMidYMid meet">
<metadata>
Created by potrace 1.11, written by Peter Selinger 2001-2013
</metadata>
<g transform="translate(0.000000,260.000000) scale(0.100000,-0.100000)"
fill="#000000" stroke="none">
<path d="M2325 2156 c-427 -149 -690 -316 -850 -540 -45 -64 -54 -85 -35 -87
6 -1 13 -2 18 -3 4 -1 34 -8 67 -15 82 -18 192 -55 270 -90 122 -56 324 -182
442 -277 23 -19 44 -30 47 -25 3 5 -22 53 -56 107 -136 217 -150 376 -52 581
46 94 153 233 248 319 41 37 73 71 70 76 -7 11 -1 13 -169 -46z"/>
<path d="M1792 2080 c-74 -26 -333 -126 -387 -149 -456 -197 -752 -265 -1038
-238 -37 3 -72 9 -77 12 -6 3 -10 -3 -10 -14 0 -47 230 -218 417 -311 111 -54
255 -105 275 -98 7 3 38 46 67 94 110 182 230 314 392 434 99 73 161 111 329
199 122 63 154 89 125 97 -5 2 -47 -10 -93 -26z"/>
<path d="M315 1480 c-3 -5 20 -47 50 -94 31 -47 66 -109 79 -138 85 -191 44
-404 -115 -610 -50 -63 -185 -200 -214 -216 -14 -8 -17 -14 -9 -22 8 -8 48 2
145 35 74 25 143 50 154 55 11 5 48 21 82 35 286 117 519 287 653 477 42 58
41 69 -5 75 -82 12 -247 66 -350 114 -88 41 -260 146 -364 223 -55 42 -103 71
-106 66z"/>
<path d="M1607 1298 c-47 -77 -148 -230 -168 -254 -48 -58 -166 -172 -234
-226 -89 -71 -195 -136 -368 -228 -75 -40 -137 -77 -137 -81 0 -31 88 -3 470
151 382 153 527 202 670 225 19 3 42 8 50 10 64 17 292 24 383 10 66 -9 62 9
-19 84 -120 110 -317 228 -496 295 -113 42 -133 44 -151 14z"/>
</g>
</svg>
