<?xml version="1.0" encoding="iso-8859-1"?>
<!-- Generator: Adobe Illustrator 17.1.0, SVG Export Plug-In . SVG Version: 6.00 Build 0)  -->
<!DOCTYPE svg PUBLIC "-//W3C//DTD SVG 1.1//EN" "http://www.w3.org/Graphics/SVG/1.1/DTD/svg11.dtd">
<svg version="1.1" id="Capa_1" xmlns="http://www.w3.org/2000/svg" xmlns:xlink="http://www.w3.org/1999/xlink" x="0px" y="0px"
	 viewBox="0 0 199.666 199.666" style="enable-background:new 0 0 199.666 199.666;" xml:space="preserve">
<path d="M165.416,182.417c-1.104,0-2-0.896-2-2v-8.932h-61.583v8.932c0,1.104-0.896,2-2,2s-2-0.896-2-2v-8.932H36.61v8.932
	c0,1.104-0.896,2-2,2s-2-0.896-2-2v-47.932c0-1.104,0.896-2,2-2s2,0.896,2,2v35h61.223v-35c0-1.104,0.896-2,2-2s2,0.896,2,2v35
	h61.583v-35c0-1.104,0.896-2,2-2s2,0.896,2,2v47.932C167.416,181.521,166.521,182.417,165.416,182.417z M155.461,160.053h-46.2
	c-3.482,0-6.316-2.834-6.316-6.316v-1.333c0-2.537,1.503-4.729,3.666-5.733v-32.602c0-5.011,1.438-9.692,3.925-13.652H89.2
	c2.486,3.96,3.925,8.642,3.925,13.652v32.602c2.163,1.004,3.666,3.196,3.666,5.733v1.333c0,3.482-2.834,6.316-6.316,6.316h-46.2
	c-3.482,0-6.316-2.834-6.316-6.316v-1.333c0-2.537,1.504-4.73,3.667-5.733v-32.602c0-5.011,1.438-9.692,3.925-13.652H4v8.931
	c0,1.104-0.896,2-2,2s-2-0.896-2-2V61.417c0-1.104,0.896-2,2-2s2,0.896,2,2v35h44.645c4.236-4.493,10.066-7.467,16.577-8.009V61.417
	c0-1.104,0.896-2,2-2s2,0.896,2,2v26.968c6.635,0.472,12.581,3.469,16.884,8.032h27.524c4.287-4.547,10.209-7.539,16.814-8.027
	V61.417c0-1.104,0.896-2,2-2s2,0.896,2,2v26.986c6.539,0.525,12.395,3.505,16.646,8.014h44.575v-35c0-1.104,0.896-2,2-2s2,0.896,2,2
	v47.931c0,1.104-0.896,2-2,2s-2-0.896-2-2v-8.931h-41.48c2.486,3.96,3.925,8.642,3.925,13.652v32.602
	c2.163,1.003,3.667,3.196,3.667,5.733v1.333C161.777,157.219,158.943,160.053,155.461,160.053z M109.261,150.087
	c-1.277,0-2.316,1.039-2.316,2.316v1.333c0,1.277,1.039,2.316,2.316,2.316h46.2c1.277,0,2.316-1.039,2.316-2.316v-1.333
	c0-1.277-1.039-2.316-2.316-2.316H109.261z M44.274,150.087c-1.277,0-2.316,1.039-2.316,2.316v1.333
	c0,1.277,1.039,2.316,2.316,2.316h46.2c1.277,0,2.316-1.039,2.316-2.316v-1.333c0-1.277-1.039-2.316-2.316-2.316H44.274z
	 M110.61,145.856h43.5v-31.787c0-11.993-9.757-21.75-21.75-21.75s-21.75,9.757-21.75,21.75V145.856z M45.625,145.856h43.5v-31.787
	c0-11.993-9.757-21.75-21.75-21.75s-21.75,9.757-21.75,21.75V145.856z M187.836,88.984h-46.2c-3.482,0-6.316-2.834-6.316-6.316
	v-1.333c0-2.537,1.503-4.729,3.666-5.733V43c0-14.198,11.552-25.75,25.75-25.75s25.75,11.552,25.75,25.75v32.602
	c2.163,1.003,3.667,3.196,3.667,5.733v1.333C194.152,86.15,191.318,88.984,187.836,88.984z M141.636,79.018
	c-1.277,0-2.316,1.039-2.316,2.316v1.333c0,1.277,1.039,2.316,2.316,2.316h46.2c1.277,0,2.316-1.039,2.316-2.316v-1.333
	c0-1.277-1.039-2.316-2.316-2.316H141.636z M142.985,74.787h43.5V43c0-11.993-9.757-21.75-21.75-21.75s-21.75,9.757-21.75,21.75
	V74.787z M122.85,88.984h-46.2c-3.482,0-6.316-2.834-6.316-6.316v-1.333c0-2.537,1.504-4.73,3.667-5.733V43
	c0-14.198,11.552-25.75,25.75-25.75S125.5,28.801,125.5,43v32.602c2.163,1.004,3.666,3.196,3.666,5.733v1.333
	C129.166,86.15,126.332,88.984,122.85,88.984z M76.649,79.018c-1.277,0-2.316,1.039-2.316,2.316v1.333
	c0,1.277,1.039,2.316,2.316,2.316h46.2c1.277,0,2.316-1.039,2.316-2.316v-1.333c0-1.277-1.039-2.316-2.316-2.316H76.649z M78,74.787
	h43.5V43c0-11.993-9.757-21.75-21.75-21.75S78,31.006,78,43V74.787z M57.863,88.984h-46.2c-3.482,0-6.316-2.834-6.316-6.316v-1.333
	c0-2.537,1.504-4.73,3.667-5.733V43c0-14.198,11.552-25.75,25.75-25.75S60.514,28.801,60.514,43v32.602
	c2.163,1.004,3.667,3.196,3.667,5.733v1.333C64.181,86.15,61.347,88.984,57.863,88.984z M11.663,79.018
	c-1.277,0-2.316,1.039-2.316,2.316v1.333c0,1.277,1.039,2.316,2.316,2.316h46.2c1.277,0,2.317-1.039,2.317-2.316v-1.333
	c0-1.277-1.04-2.316-2.317-2.316H11.663z M13.014,74.787h43.5V43c0-11.993-9.757-21.75-21.75-21.75S13.014,31.006,13.014,43V74.787z
	"/>
<g>
</g>
<g>
</g>
<g>
</g>
<g>
</g>
<g>
</g>
<g>
</g>
<g>
</g>
<g>
</g>
<g>
</g>
<g>
</g>
<g>
</g>
<g>
</g>
<g>
</g>
<g>
</g>
<g>
</g>
</svg>
