<svg id="Capa_1" enable-background="new 0 0 512 512" height="512" viewBox="0 0 512 512" width="512" xmlns="http://www.w3.org/2000/svg"><g><circle cx="444.5" cy="444.5" r="7.5"/><circle cx="149.5" cy="324.5" r="7.5"/><circle cx="179.5" cy="294.5" r="7.5"/><circle cx="414.5" cy="474.5" r="7.5"/><circle cx="354.5" cy="414.5" r="7.5"/><circle cx="67.5" cy="444.5" r="7.5"/><path d="m444.5 377h-.79c.833-2.347 1.29-4.871 1.29-7.5 0-12.406-10.093-22.5-22.5-22.5h-23.308c9.745-9.537 15.808-22.821 15.808-37.5 0-28.948-23.551-52.5-52.5-52.5h-32.673c67.763-28.823 115.399-96.065 115.399-174.227 0-4.143-3.358-7.5-7.5-7.5-21.43 0-42.355 3.555-62.351 10.561-1.159-20.661-5.741-41.469-14.097-61.642-.761-1.838-2.221-3.298-4.059-4.059-1.838-.762-3.903-.762-5.741 0-19.804 8.204-37.772 19.497-53.561 33.621-8.978-18.645-21.174-36.117-36.614-51.558-1.406-1.406-3.314-2.196-5.303-2.196s-3.897.79-5.303 2.196c-15.44 15.441-27.637 32.913-36.614 51.558-15.789-14.123-33.758-25.417-53.561-33.621-1.839-.762-3.903-.762-5.741 0-1.838.761-3.298 2.221-4.059 4.059-8.356 20.173-12.938 40.981-14.097 61.642-19.995-7.006-40.92-10.561-62.351-10.561-4.142 0-7.5 3.357-7.5 7.5 0 78.161 47.636 145.404 115.399 174.227h-32.673c-28.949 0-52.5 23.552-52.5 52.5 0 14.679 6.063 27.963 15.808 37.5h-23.308c-12.407 0-22.5 10.094-22.5 22.5 0 2.629.458 5.153 1.29 7.5h-.79c-37.22 0-67.5 30.28-67.5 67.5s30.28 67.5 67.5 67.5h377c37.22 0 67.5-30.28 67.5-67.5s-30.28-67.5-67.5-67.5zm-44.5-67.5c0 20.678-16.822 37.5-37.5 37.5h-143.644c3.804-41.987 39.182-75 82.144-75h61.5c20.678 0 37.5 16.822 37.5 37.5zm-24.4-207.776c17.449-6.688 35.716-10.476 54.46-11.285-3.479 79.986-61.149 146.142-137.119 162.609 50.715-34.501 80.951-91.424 82.659-151.324zm-25.4-64.646c27.394 75.229-.568 158.419-64.454 202.705 33.651-51.282 39.802-115.442 18.459-171.435 13.56-12.856 28.984-23.347 45.995-31.27zm-94.2-18.736c60.86 66.397 60.86 168.919 0 235.316-60.86-66.397-60.86-168.919 0-235.316zm-94.2 18.736c17.011 7.922 32.435 18.414 45.995 31.27-21.343 55.993-15.192 120.154 18.459 171.435-63.886-44.286-91.849-127.476-64.454-202.705zm-79.86 53.36c18.743.809 37.01 4.597 54.46 11.285 1.708 59.9 31.944 116.823 82.659 151.324-75.97-16.466-133.64-82.623-137.119-162.609zm30.06 219.062c0-20.678 16.822-37.5 37.5-37.5h99.597c-25.384 16.027-42.899 43.432-45.312 75h-54.285c-20.678 0-37.5-16.822-37.5-37.5zm-30 60c0-4.136 3.364-7.5 7.5-7.5h61.5c9.778 0 18.12 6.27 21.215 15h-82.715c-4.136 0-7.5-3.364-7.5-7.5zm-14.5 127.5c-28.949 0-52.5-23.552-52.5-52.5s23.551-52.5 52.5-52.5h59.953c2.651 45.476 29.242 84.624 67.328 105zm377 0h-189.773c-59.512 0-108.371-46.452-112.244-105h38.517c4.142 0 7.5-3.357 7.5-7.5 0-8.436-2.801-16.228-7.52-22.5h241.52c4.136 0 7.5 3.364 7.5 7.5s-3.364 7.5-7.5 7.5h-211.5c-4.142 0-7.5 3.357-7.5 7.5s3.358 7.5 7.5 7.5h233.5c28.949 0 52.5 23.552 52.5 52.5s-23.551 52.5-52.5 52.5z"/></g></svg>