<?xml version="1.0" encoding="iso-8859-1"?>
<!-- Generator: Adobe Illustrator 19.0.0, SVG Export Plug-In . SVG Version: 6.00 Build 0)  -->
<svg version="1.1" id="Layer_1" xmlns="http://www.w3.org/2000/svg" xmlns:xlink="http://www.w3.org/1999/xlink" x="0px" y="0px"
	 viewBox="0 0 475 475" style="enable-background:new 0 0 475 475;" xml:space="preserve">
<g transform="translate(0 -540.36)">
	<g>
		<g>
			<rect x="232.4" y="705.358" width="10.1" height="25.1"/>
			<rect x="232.4" y="785.158" width="10.1" height="25.1"/>
			<rect x="232.4" y="745.458" width="10.1" height="24.7"/>
			<path d="M0,660.36v4.9v230.1h475v-235H0z M169.8,670.46h62.6v15h-62.6V670.46z M10.1,782.96h15v77.2h-15V782.96z M25.1,885.26
				h-15v-15h15V885.26z M25.1,772.76h-15v-77.6h15V772.76z M25.1,685.46h-15v-15h15V685.46z M160.1,885.26H34.9v-15h125.2V885.26z
				 M160.1,860.16H34.9v-77.2h125.2V860.16z M160.1,772.86H34.9v-77.6h125.2V772.86z M160.1,685.46H34.9v-15h125.2V685.46z
				 M169.8,860.16v-164.9h135v164.9L169.8,860.16L169.8,860.16z M232.4,885.26h-62.6v-15h62.6V885.26z M304.8,885.26h-62.2v-15h62.2
				V885.26z M304.8,685.46h-62.2v-15h62.2V685.46z M439.7,885.26H314.9v-15h124.8V885.26z M439.7,860.16H314.9v-77.2h124.8V860.16z
				 M439.7,772.86H314.9v-77.6h124.8V772.86z M439.7,685.46H314.9v-15h124.8V685.46z M464.9,885.26h-15v-15h15V885.26z
				 M464.9,860.16h-15v-77.2h15V860.16z M464.9,772.76h-15v-77.6h15V772.76z M464.9,685.46h-15v-15h15V685.46z"/>
			<rect x="232.4" y="825.258" width="10.1" height="25.1"/>
		</g>
	</g>
</g>
<g>
</g>
<g>
</g>
<g>
</g>
<g>
</g>
<g>
</g>
<g>
</g>
<g>
</g>
<g>
</g>
<g>
</g>
<g>
</g>
<g>
</g>
<g>
</g>
<g>
</g>
<g>
</g>
<g>
</g>
</svg>
