<svg id="Layer_3" enable-background="new 0 0 64 64" height="512" viewBox="0 0 64 64" width="512" xmlns="http://www.w3.org/2000/svg"><path d="m32 21c4.411 0 8-3.589 8-8s-3.589-8-8-8-8 3.589-8 8 3.589 8 8 8zm0-14c3.309 0 6 2.691 6 6s-2.691 6-6 6-6-2.691-6-6 2.691-6 6-6z"/><path d="m33 10h2v2h-2z"/><path d="m35 12h2v2h-2z"/><path d="m33 14h2v2h-2z"/><path d="m62 18c.552 0 1-.448 1-1v-4c0-.552-.448-1-1-1h-18.051c-.511-6.149-5.67-11-11.949-11s-11.438 4.851-11.949 11h-18.051c-.552 0-1 .448-1 1v4c0 .552.448 1 1 1h3v43h-4v2h62v-2h-4v-43zm-1-2h-17.395c.168-.648.287-1.315.344-2h17.051zm-29-13c5.514 0 10 4.486 10 10s-4.486 10-10 10-10-4.486-10-10 4.486-10 10-10zm-29 11h17.051c.057.685.177 1.352.344 2h-17.395zm8 17v-2h42v2zm38 2v28h-34v-28zm8 28h-6v-28h3c.552 0 1-.448 1-1v-4c0-.552-.448-1-1-1h-44c-.552 0-1 .448-1 1v4c0 .552.448 1 1 1h3v28h-6v-43h14.105c1.901 4.124 6.064 7 10.895 7s8.994-2.876 10.895-7h14.105z"/><path d="m26 59h4c.552 0 1-.448 1-1v-22c0-.552-.448-1-1-1h-4c-.552 0-1 .448-1 1v22c0 .552.448 1 1 1zm1-22h2v20h-2z"/><path d="m18 59h4c.552 0 1-.448 1-1v-22c0-.552-.448-1-1-1h-4c-.552 0-1 .448-1 1v22c0 .552.448 1 1 1zm1-22h2v20h-2z"/><path d="m34 59h4c.552 0 1-.448 1-1v-22c0-.552-.448-1-1-1h-4c-.552 0-1 .448-1 1v22c0 .552.448 1 1 1zm1-22h2v20h-2z"/><path d="m42 59h4c.552 0 1-.448 1-1v-22c0-.552-.448-1-1-1h-4c-.552 0-1 .448-1 1v22c0 .552.448 1 1 1zm1-22h2v20h-2z"/></svg>