<svg id="exercise5" enable-background="new 0 0 300 300" height="512" viewBox="0 0 300 300" width="512" xmlns="http://www.w3.org/2000/svg"><g><path d="m262 62h-8v-20c0-2.211-1.789-4-4-4h-16c-2.211 0-4 1.789-4 4v20h-4v-4c0-2.211-1.789-4-4-4h-20c-2.211 0-4 1.789-4 4v4h-28v-4-6.707c0-7.328-5.965-13.293-13.293-13.293h-30.707c-2.211 0-4 1.789-4 4 0 6.516 3.179 12.259 8.018 15.912-.001.031-.018.057-.018.088v4h-28v-4c0-2.211-1.789-4-4-4h-20c-2.211 0-4 1.789-4 4v4h-4v-20c0-2.211-1.789-4-4-4h-16c-2.211 0-4 1.789-4 4v20h-8c-2.211 0-4 1.789-4 4v12c0 2.211 1.789 4 4 4h8v20c0 2.211 1.789 4 4 4h16c2.211 0 4-1.789 4-4v-20h7.503l-3.437 27.504c-.02.164-.031.332-.031.496 0 3.453 1.492 6.746 4.09 9.027.668.59 1.516.938 2.402.988l30.404 1.807 10.959 40.189-11.789 51.09c-.273 1.188.008 2.434.77 3.387.758.957 1.91 1.512 3.129 1.512v40c0 2.211 1.789 4 4 4s4-1.789 4-4v-40h15.28l-3.225 19.344c-.035.215-.055.437-.055.656v20c0 2.211 1.789 4 4 4s4-1.789 4-4v-19.668l3.406-20.434c1.553-.244 2.861-1.333 3.266-2.891l1.328-5.109 1.328 5.109c.404 1.558 1.713 2.646 3.265 2.891l3.407 20.434v19.668c0 2.211 1.789 4 4 4s4-1.789 4-4v-20c0-.219-.02-.441-.055-.656l-3.225-19.344h15.28v40c0 2.211 1.789 4 4 4s4-1.789 4-4v-40c1.219 0 2.371-.555 3.129-1.512.762-.953 1.043-2.199.77-3.387l-11.773-51.02 10.979-40.259 30.4-1.808c.887-.051 1.73-.398 2.398-.984 2.605-2.28 4.097-5.573 4.097-9.03 0-.164-.012-.332-.031-.496l-3.44-27.504h7.471v20c0 2.211 1.789 4 4 4h16c2.211 0 4-1.789 4-4v-20h8c2.211 0 4-1.789 4-4v-12c0-2.211-1.789-4-4-4zm-92 20h32v11.277l-19.344-3.223c-.215-.034-.437-.054-.656-.054h-12zm36-20h12v4h-12zm-8 8c0 2.211 1.789 4 4 4h-32v-4zm-41.293-24c2.918 0 5.293 2.375 5.293 5.293v2.707h-20c-5.215 0-9.664-3.344-11.316-8zm5.293 16v28h-11.246c-7.031 0-12.754-5.723-12.754-12.754v-15.246zm-63.965 20h32.566c.703 2.977 2.069 5.67 3.902 8h-16.469c-.219 0-.441.02-.656.055l-19.344 3.223v-11.278zm31.965-12v4h-32c2.211 0 4-1.789 4-4zm-48-8h12v4h-12zm-40 12v-4h4v4zm20 24h-8v-52h8zm8-28h4c0 2.211 1.789 4 4 4h-8zm110.973 140h-22.68l-4.422-17.008c-.457-1.762-2.051-2.992-3.871-2.992s-3.414 1.23-3.871 2.992l-4.422 17.008h-22.68l10.154-44h41.636zm-10.028-52h-41.855l-8.836-32.401 7.958 3.979c.555.277 1.168.422 1.789.422h40c.621 0 1.234-.145 1.789-.422l7.998-3.999zm47.051-47.793c-.035.684-.25 1.348-.609 1.922l-31.625 1.879c-.539.031-1.066.172-1.551.414l-15.156 7.578h-15.055v-8c0-2.211-1.789-4-4-4s-4 1.789-4 4v8h-15.055l-14.805-7.402c-.547-.34-1.184-.551-1.867-.59l-31.625-1.879c-.359-.574-.574-1.238-.609-1.922l3.526-28.207h4.47v16c0 1.176.516 2.293 1.414 3.051.895.762 2.082 1.078 3.242.895l23.676-3.946h63.301l23.676 3.945c.218.035.437.055.656.055.941 0 1.859-.332 2.586-.949.898-.758 1.414-1.875 1.414-3.051v-16h4.468zm4.004-36.207c2.211 0 4-1.789 4-4h4v4zm24 24h-8v-52h8zm12-24h-4v-4h4z"/><path d="m216.828 163.172c-1.562-1.562-4.094-1.562-5.656 0l-3.172 3.172-3.172-3.172c-1.562-1.562-4.094-1.562-5.656 0s-1.562 4.094 0 5.656l3.172 3.172-3.172 3.172c-1.562 1.562-1.562 4.094 0 5.656.781.781 1.805 1.172 2.828 1.172s2.047-.391 2.828-1.172l3.172-3.172 3.172 3.172c.781.781 1.805 1.172 2.828 1.172s2.047-.391 2.828-1.172c1.562-1.562 1.562-4.094 0-5.656l-3.172-3.172 3.172-3.172c1.563-1.562 1.563-4.094 0-5.656z"/><path d="m96 150c-7.719 0-14 6.281-14 14s6.281 14 14 14 14-6.281 14-14-6.281-14-14-14zm0 20c-3.309 0-6-2.691-6-6s2.691-6 6-6 6 2.691 6 6-2.691 6-6 6z"/><path d="m150 134c-2.211 0-4 1.789-4 4v12c0 2.211 1.789 4 4 4s4-1.789 4-4v-12c0-2.211-1.789-4-4-4z"/><circle cx="230" cy="214" r="4"/></g></svg>