<?xml version="1.0" encoding="iso-8859-1"?>
<!-- Generator: Adobe Illustrator 19.0.0, SVG Export Plug-In . SVG Version: 6.00 Build 0)  -->
<svg version="1.1" id="Capa_1" xmlns="http://www.w3.org/2000/svg" xmlns:xlink="http://www.w3.org/1999/xlink" x="0px" y="0px"
	 viewBox="0 0 512 512" style="enable-background:new 0 0 512 512;" xml:space="preserve">
<g>
	<g>
		<path d="M495.969,345.174V63.624h-15.029v57.112h-17.033V96.689H336.658v15.029h112.219v17.033H63.123v-17.033h113.221V96.689
			H48.094v32.063H31.061V63.624H16.031v281.55H0v103.202h47.092V345.174H31.061V256h17.033v8.016h32.063v-15.029H63.123v-25.049
			h49.096v25.049H95.186v15.029h368.72v-16.031h17.033v97.19h-16.031v103.202H512V345.174H495.969z M32.063,360.203v73.143H15.029
			v-73.143h1.002h15.029H32.063z M48.094,240.971H31.061v-97.19h17.033V240.971z M112.219,208.908H63.123v-25.049h49.096V208.908z
			 M112.219,168.83H63.123v-25.049h49.096V168.83z M176.344,248.986h-49.096v-25.049h49.096V248.986z M176.344,208.908h-49.096
			v-25.049h49.096V208.908z M176.344,168.83h-49.096v-25.049h49.096V168.83z M248.485,248.986h-57.112v-25.049h57.112V248.986z
			 M248.485,208.908h-57.112v-25.049h57.112V208.908z M248.485,168.83h-57.112v-25.049h57.112V168.83z M320.626,248.986h-57.112
			v-25.049h57.112V248.986z M320.626,208.908h-57.112v-25.049h57.112V208.908z M320.626,168.83h-57.112v-25.049h57.112V168.83z
			 M384.751,248.986h-49.096v-25.049h49.096V248.986z M384.751,208.908h-49.096v-25.049h49.096V208.908z M384.751,168.83h-49.096
			v-25.049h49.096V168.83z M448.877,248.986h-49.096v-25.049h49.096V248.986z M448.877,208.908h-49.096v-25.049h49.096V208.908z
			 M448.877,168.83h-49.096v-25.049h49.096V168.83z M463.906,232.955v-97.19h17.033v97.19H463.906z M496.971,433.346h-17.033
			v-73.143h17.033V433.346z"/>
	</g>
</g>
<g>
	<g>
		<rect x="223.436" y="96.689" width="64.125" height="15.029"/>
	</g>
</g>
<g>
	<g>
		<rect x="191.374" y="96.689" width="16.031" height="15.029"/>
	</g>
</g>
<g>
	<g>
		<rect x="303.593" y="96.689" width="16.031" height="15.029"/>
	</g>
</g>
<g>
	<g>
		<rect x="63.123" y="433.346" width="160.313" height="15.029"/>
	</g>
</g>
<g>
	<g>
		<rect x="287.562" y="433.346" width="160.313" height="15.029"/>
	</g>
</g>
<g>
	<g>
		<rect x="247.483" y="433.346" width="16.031" height="15.029"/>
	</g>
</g>
<g>
</g>
<g>
</g>
<g>
</g>
<g>
</g>
<g>
</g>
<g>
</g>
<g>
</g>
<g>
</g>
<g>
</g>
<g>
</g>
<g>
</g>
<g>
</g>
<g>
</g>
<g>
</g>
<g>
</g>
</svg>
