<svg id="Layer_1" enable-background="new 0 0 511 511" height="512" viewBox="0 0 511 511" width="512" xmlns="http://www.w3.org/2000/svg"><g><path d="m119.5 376h16v15h-16z"/><path d="m151.5 376h16v15h-16z"/><path d="m343.5 120h16v15h-16z"/><path d="m375.5 120h16v15h-16z"/><path d="m343.5 72v15h152.5v33.206c-71.24 3.906-128 63.096-128 135.294s56.76 131.389 128 135.294v33.206h-233v-113.505c27.069-3.673 48-26.935 48-54.995s-20.931-51.323-48-54.995v-113.505h64.5v-15h-327.5v367h167.5v-15h-152.5v-33.206c71.24-3.906 128-63.096 128-135.294s-56.76-131.389-128-135.294v-33.206h233v113.505c-27.069 3.673-48 26.935-48 54.995s20.931 51.323 48 54.995v113.505h-64.5v15h327.5v-367zm-247.5 160.174v46.651c-9.852-3.175-17-12.431-17-23.326s7.148-20.15 17-23.325zm15 0c9.852 3.175 17 12.431 17 23.326s-7.148 20.151-17 23.326zm-34.418 52.209-61.582 10.263v-78.293l61.582 10.264c-7.737 7.216-12.582 17.494-12.582 28.883s4.845 21.667 12.582 28.883zm-61.582 91.386v-65.915l89.157-14.86c6.849-.112 13.279-1.976 18.862-5.163-14.134 47.473-56.798 82.777-108.019 85.938zm108.019-154.6c-5.583-3.187-12.013-5.051-18.862-5.163l-89.157-14.86v-65.915c51.221 3.161 93.885 38.465 108.019 85.938zm172.981 34.331c0 19.77-14.239 36.276-33 39.803v-79.606c18.761 3.527 33 20.033 33 39.803zm-81 0c0-19.77 14.239-36.276 33-39.803v79.606c-18.761-3.527-33-20.033-33-39.803zm200 23.326v-46.651c9.852 3.175 17 12.431 17 23.326s-7.148 20.15-17 23.325zm-15 0c-9.852-3.175-17-12.431-17-23.326s7.148-20.151 17-23.326zm34.418-52.209 61.582-10.263v78.293l-61.582-10.264c7.737-7.216 12.582-17.494 12.582-28.883s-4.845-21.667-12.582-28.883zm61.582-91.386v65.915l-89.157 14.86c-6.849.112-13.279 1.976-18.862 5.163 14.134-47.473 56.799-82.777 108.019-85.938zm-108.019 154.6c5.583 3.187 12.013 5.051 18.862 5.163l89.157 14.86v65.915c-51.22-3.161-93.885-38.465-108.019-85.938z"/></g></svg>