<svg height="511pt" viewBox="0 -10 511.99947 511" width="511pt" xmlns="http://www.w3.org/2000/svg"><path d="m503.6875 296.496094c-4.105469-13.445313-16.328125-22.84375-30.414062-23.386719l-42.734376-1.644531c-.09375-.003906-3.359374-.003906-5.277343-.003906-.402344-.253907-.808594-.5-1.214844-.742188 6.894531-2.285156 13.75-4.660156 20.539063-7.140625 18.546874-6.785156 29.929687-25.890625 27.066406-45.433594l-1.019532-6.941406c-12.183593-83.082031-59.324218-157.332031-129.332031-203.703125-12.144531-8.042969-27.308593-9.230469-40.558593-3.175781-13.25 6.058593-22.273438 18.300781-24.136719 32.75l-1.664063 12.878906c-4.863281-3.675781-9.839844-7.230469-14.949218-10.617187-12.148438-8.042969-27.3125-9.230469-40.5625-3.171876-13.25 6.054688-22.273438 18.296876-24.136719 32.746094l-6.980469 54.09375c-5.429688 42.097656-18.429688 82.082032-38.667969 119.101563-3.632812-5.070313-8.320312-9.367188-13.882812-12.609375-10.480469-6.105469-22.695313-7.710938-34.40625-4.523438-6.796875 1.851563-12.796875 5.234375-17.765625 9.675782-2.449219-23.667969 4.441406-47.347657 19.636718-66.257813 2.210938 1.8125 4.664063 3.359375 7.324219 4.597656 4.578125 2.125 9.464844 3.195313 14.371094 3.195313 3.960937 0 7.929687-.695313 11.757813-2.097656 8.570312-3.132813 15.410156-9.417969 19.253906-17.699219 3.847656-8.277344 4.238281-17.558594 1.101562-26.128907-3.132812-8.574218-9.417968-15.410156-17.699218-19.257812-8.277344-3.84375-17.558594-4.234375-26.128907-1.101562-8.574219 3.136718-15.410156 9.421874-19.257812 17.699218-3.410157 7.347656-4.097657 15.484375-2.015625 23.214844-12.929688 14.316406-21.9375 31.753906-26.132813 50.664062-2.246093 10.132813-3.042969 20.457032-2.421875 30.710938-16.847656-17.285156-26.375-40.808594-25.988281-65.289062 3.996094-.382813 7.933594-1.464844 11.65625-3.261719 8.21875-3.972657 14.394531-10.910157 17.398437-19.527344 6.195313-17.792969-3.238281-37.3125-21.035156-43.511719-8.621094-3-17.894531-2.46875-26.109375 1.503906-8.21875 3.976563-14.398437 10.910157-17.398437 19.527344-5.535156 15.890625 1.402344 33.144532 15.621094 41.074219-2.023438 39.804687 17.585937 78.03125 51.339843 99.542969-.828125 5.808594-.554687 11.875.996094 17.890625 18.714844 72.5625 64.472656 133.570312 128.847656 171.785156 43.75 25.96875 92.925781 39.496094 143.128907 39.496094 5.242187 0 10.5-.148438 15.757812-.445313 13.53125-.761718 25.875-7.453125 33.867188-18.359375 7.953124-10.855469 10.609374-24.5625 7.28125-37.609375-.15625-.621094-.332032-1.234375-.511719-1.84375 17.128906 6.21875 40.035156 12.84375 66.15625 16.046875 1.328125.164063 2.652343.242188 3.96875.242188 13.992187 0 26.832031-9.027344 31.4375-22.609375 20-58.980469 11.023437-106.980469 3.894531-130.34375zm-391.597656-160.472656c1.59375-3.433594 4.429687-6.039063 7.984375-7.339844 1.589843-.582032 3.234375-.867188 4.875-.867188 2.035156 0 4.0625.441406 5.960937 1.324219 3.433594 1.59375 6.042969 4.429687 7.339844 7.984375 1.300781 3.554688 1.140625 7.402344-.453125 10.835938-1.597656 3.433593-4.433594 6.042968-7.988281 7.339843-3.554688 1.300781-7.402344 1.136719-10.835938-.453125-3.433594-1.597656-6.039062-4.433594-7.339844-7.988281-1.300781-3.554687-1.136718-7.402344.457032-10.835937zm-91.300782-7.816407c1.246094-3.574219 3.808594-6.449219 7.214844-8.097656 1.953125-.941406 4.050782-1.417969 6.15625-1.417969 1.570313 0 3.148438.265625 4.671875.796875v-.003906c7.378907 2.570313 11.292969 10.667969 8.722657 18.046875-1.246094 3.574219-3.808594 6.449219-7.214844 8.097656-3.40625 1.648438-7.253906 1.871094-10.828125.625-7.378907-2.570312-11.292969-10.664062-8.722657-18.046875zm312.675782 273.121094c-23.804688-1.117187-46.738282-6.664063-67.851563-15.949219 41.308594-3.722656 81.886719-12.789062 121-27.09375 5.1875-1.898437 7.855469-7.640625 5.957031-12.828125-1.894531-5.1875-7.640624-7.851562-12.828124-5.957031-46.792969 17.113281-95.773438 26.425781-145.578126 27.683594l-.984374.023437c-13.25-9.207031-25.335938-20.0625-35.9375-32.328125l30.550781-4.679687c44.480469-6.816407 88.476562-17.960938 130.855469-33.125.191406-.058594.386718-.109375.578124-.179688l4.035157-1.476562c.003906 0 .007812 0 .011719-.003907l26.273437-9.605468c13.1875-4.828125 27.734375.480468 34.578125 12.621094 9.289062 16.472656 19.554688 43.980468 15.699219 81.453124-1.027344 9.972657-9.4375 17.847657-19.5625 18.316407-39.972657 1.855469-82.976563 3.023437-86.796875 3.128906zm-37.023438-361.695313c.972656-7.550781 5.6875-13.949218 12.613282-17.117187 6.925781-3.164063 14.851562-2.546875 21.199218 1.660156 65.277344 43.234375 109.226563 112.464844 120.585938 189.929688l1.019531 6.941406c1.5 10.214844-4.453125 20.199219-14.148437 23.746094-15.453126 5.652343-31.257813 10.78125-47.148438 15.324219.332031-3.324219.277344-6.722657-.222656-10.136719l-1.019532-6.941407c-10.144531-69.164062-44.523437-132.1875-96.140624-178.121093zm-88.289062 85.929688 6.976562-54.09375c.972656-7.550781 5.691406-13.949219 12.617188-17.117188 6.921875-3.164062 14.851562-2.542968 21.199218 1.660157 65.273438 43.234375 109.226563 112.464843 120.585938 189.929687l1.015625 6.941406c1.5 10.214844-4.449219 20.199219-14.144531 23.746094l-.011719.003906c-42.554687 15.5625-86.839844 26.929688-131.628906 33.792969l-31.925781 4.890625c38.921874-20.457031 74.859374-46.113281 106.828124-76.3125 4.015626-3.792968 4.195313-10.121094.402344-14.140625-3.792968-4.011719-10.121094-4.195312-14.136718-.398437-31.171876 29.441406-66.269532 54.394531-104.316407 74.164062l-7.078125 3.679688c-1.1875-2.148438-2.339844-4.324219-3.445312-6.523438l1.121094-.976562c33.941406-29.542969 60.878906-65.15625 80.070312-105.859375 2.355469-4.992188.214844-10.953125-4.78125-13.308594s-10.953125-.214844-13.308594 4.78125c-17.3125 36.714844-41.367187 69.003906-71.5 96.074219-1.304687-3.511719-2.511718-7.074219-3.617187-10.6875 26.117187-43.082032 42.628906-90.257813 49.078125-140.246094zm167.171875 335.226562c-4.445313 6.066407-11.316407 9.789063-18.855469 10.214844-51.636719 2.910156-102.664062-9.636718-147.550781-36.28125-59.800781-35.496094-102.308594-92.171875-119.691407-159.578125-1.0625-4.121093-1.066406-8.273437-.191406-12.160156.039063-.148437.074219-.300781.105469-.449219 2.101563-8.617187 8.558594-15.835937 17.46875-18.261718 2.183594-.597657 4.398437-.890626 6.597656-.890626 4.34375 0 8.628907 1.148438 12.484375 3.394532 5.8125 3.386718 9.925782 8.839844 11.589844 15.355468 13.1875 51.722657 44.9375 94.808594 86.824219 123.097657.328125.25.671875.480469 1.03125.691406 33.980469 22.660156 74.53125 35.628906 117.226562 35.625 3.8125 0 7.652344-.101563 11.496094-.3125 11.828125-.644531 22.570313 7.226563 25.5 18.714844 1.84375 7.226562.375 14.824219-4.035156 20.839843zm105.527343-40.375c-2.011718 5.933594-7.914062 9.699219-14.03125 8.941407-18.632812-2.289063-35.644531-6.511719-49.792968-10.988281 1.386718-.0625 2.777344-.125 4.160156-.191407 19.9375-.925781 36.503906-16.507812 38.53125-36.246093 4.144531-40.273438-6.160156-70.683594-16.335938-89.953126l29.121094 1.117188c5.589844.21875 10.429688 3.929688 12.050782 9.238281 6.429687 21.0625 14.496093 64.410157-3.703126 118.082031zm0 0"/><path d="m255.457031 154.878906c1.050781.351563 2.117188.515625 3.164063.515625 4.1875 0 8.089844-2.648437 9.488281-6.839843.023437-.074219.070313-.226563.09375-.300782 1.625-5.277344-1.339844-10.863281-6.617187-12.488281-5.257813-1.621094-10.835938 1.316406-12.484376 6.5625-1.679687 5.210937 1.148438 10.816406 6.355469 12.550781zm0 0"/><path d="m317.015625 212.921875c1.128906.410156 2.285156.605469 3.421875.605469 4.085938 0 7.917969-2.519532 9.398438-6.582032l.066406-.191406c1.890625-5.1875-.785156-10.925781-5.976563-12.816406-5.183593-1.890625-10.925781.785156-12.816406 5.976562l-.070313.191407c-1.886718 5.1875.789063 10.925781 5.976563 12.816406zm0 0"/></svg>