<svg id="Capa_1" enable-background="new 0 0 512 512" height="512" viewBox="0 0 512 512" width="512" xmlns="http://www.w3.org/2000/svg"><g><path d="m82.758 137.148c2.884 0 5.714-.353 8.445-1.014-5.53 26.566-5.543 42.247 1.172 76.214 6.107 26.672 18.704 47.782 31.346 63.353-12.891-2.965-26.491-4.087-40.281-3.179-4.133.271-7.264 3.842-6.993 7.975s3.845 7.254 7.975 6.993c31.244-2.059 61.237 7.433 82.308 26.018 20.813 18.358 49.489 30.539 78.674 33.419 4.59.452 9.138.677 13.634.677 25.854-.001 49.871-7.418 68.715-21.415l24.119-17.915c43.512-32.315 110.935-27.854 147.233 9.742 2.876 2.979 7.625 3.063 10.604.187s3.063-7.625.187-10.604c-38.571-39.952-107.904-47.099-157.009-17.98-.635-13.69-2.143-27.37-4.48-40.856 2.456-3.818 5.335-7.186 8.596-10.025 10.868-8.979 21.688-11.88 31.786-14.57 3.317-.767 6.451-1.49 9.491-4.772 11.413-12.315.188-36.649-5.168-46.539-.891-1.646-1.871-3.282-2.911-4.864-2.275-3.461-6.926-4.421-10.387-2.146-3.461 2.276-4.421 6.927-2.145 10.388.806 1.227 1.564 2.493 2.253 3.765 6.649 12.277 10.084 25.675 7.467 29.066-.444.134-1.28.327-1.976.487-12.216 3.305-24.268 6.376-38.26 17.873-.842.732-1.663 1.49-2.465 2.272-2.596-11.271-5.889-22.284-9.843-33.088-4.001-10.876-9.481-25.771-20.649-43.244-3.327-5.206-6.917-10.262-10.745-15.136 20.082 3.479 37.786 9.372 51.064 17.104 3.579 2.084 8.171.872 10.255-2.707 2.084-3.58.873-8.171-2.707-10.256-23.713-13.808-52.855-19.243-74.021-21.356-14.229-14.311-30.37-25.533-47.99-33.132-30.744-13.295-66.5-20.506-96.288-10.713.202-1.529.317-3.076.317-4.638 0-8.675-4.599-18.782-11.717-25.75-6.688-6.547-15.008-9.915-24.048-9.711-9.319.2-18.364 4.299-24.815 11.245-4.967 5.347-8.088 11.886-9.106 18.887-15.726 3.737-27.242 17.76-27.242 34.484 0 19.552 15.973 35.461 35.605 35.461zm151.356-35.493c15.663 6.754 30.072 16.73 42.852 29.48-1.736 16.828-6.27 32.99-13.497 48.091-1.788 3.736-.209 8.215 3.527 10.003 3.652 1.773 8.209.247 10.003-3.526 6.073-12.688 10.411-26.05 12.985-39.89 12.684 16.086 23.246 35.313 31.185 57.108.471 1.298.935 2.599 1.385 3.907 4.054 11.921 7.964 27.276 10.608 41.771 3.073 16.842 4.747 34.031 5.022 51.155l-19.377 14.393c-38.518 28.608-102.289 23.275-142.156-11.89-5.729-5.053-12.027-9.51-18.765-13.349-.162-.16-.329-.315-.508-.463-4.29-3.528-9.542-8.268-15.061-14.2 44.243-1.145 86.371-21.908 114.99-57.333 2.603-3.222 2.101-7.944-1.121-10.547-3.224-2.604-7.944-2.103-10.547 1.121-28.444 35.208-71.62 54.362-115.81 51.52-9.462-13.18-18.218-29.85-22.833-50.008-4.057-17.721-14.483-77.801 21.682-106.894 33.537-26.975 84.905-9.301 105.436-.449zm-152.236-20.415c4.057-.096 7.462-3.838 7.179-7.886-.287-5.481 1.643-10.749 5.436-14.832 7.142-7.873 19.747-8.897 27.38-1.022 9.717 9.813 9.358 22.204.021 30.562-8.683 7.021-16.002 15.205-21.883 24.816-3.83 5.805-10.279 9.27-17.252 9.27-11.361 0-20.604-9.179-20.604-20.462-.002-11.006 8.662-19.987 19.723-20.446z"/><path d="m190.747 188.496c21.041 0 38.159-17.049 38.159-38.004 0-20.956-17.118-38.005-38.159-38.005s-38.159 17.049-38.159 38.005c0 20.955 17.118 38.004 38.159 38.004zm0-61.009c12.77 0 23.159 10.32 23.159 23.005s-10.389 23.004-23.159 23.004-23.159-10.319-23.159-23.004 10.389-23.005 23.159-23.005z"/><path d="m7.499 321.045c1.985 0 3.967-.784 5.442-2.338 10.225-10.776 23.696-19.341 38.959-24.769 3.903-1.388 5.941-5.677 4.554-9.579-1.388-3.903-5.677-5.945-9.579-4.554-17.477 6.215-32.973 16.097-44.815 28.577-2.851 3.005-2.726 7.752.279 10.603 1.45 1.377 3.306 2.06 5.16 2.06z"/><path d="m12.941 382.559c38.125-40.185 111.425-42.751 153.788-5.387 20.814 18.358 49.49 30.539 78.674 33.42 4.589.453 9.141.678 13.636.678 25.854 0 49.868-7.418 68.711-21.415l24.119-17.915c43.51-32.314 110.935-27.854 147.234 9.741 2.876 2.979 7.625 3.063 10.605.187 2.98-2.877 3.063-7.625.186-10.604-41.262-42.739-117.724-47.941-166.97-11.364l-24.119 17.915c-38.516 28.608-102.287 23.274-142.156-11.892-48.04-42.369-131.256-39.362-174.592 6.313-2.851 3.005-2.726 7.752.279 10.603 3.007 2.851 7.754 2.724 10.605-.28z"/><path d="m342.927 423.565c-8.475 5.995-27.368 21.344-36.576 25.621-3.691 1.879-5.161 6.395-3.282 10.086 1.887 3.73 6.471 5.144 10.086 3.283 10.37-4.825 29.254-20.207 38.716-26.948 43.511-32.316 110.937-27.857 147.233 9.741 2.876 2.979 7.625 3.063 10.605.187 2.98-2.877 3.064-7.625.187-10.604-41.261-42.74-117.723-47.942-166.969-11.366z"/><path d="m274.062 458.973c-34.435 4.5-71.761-6.76-97.411-29.384-48.039-42.369-131.255-39.363-174.592 6.311-2.851 3.005-2.726 7.752.279 10.603 3.005 2.853 7.752 2.725 10.603-.278 38.125-40.183 111.426-42.75 153.788-5.386 24.612 21.708 58.763 34.102 92.269 34.101 5.703-.001 11.393-.36 17.007-1.094 4.107-.536 7.002-4.301 6.465-8.408-.536-4.107-4.3-6.999-8.408-6.465z"/></g></svg>