<svg id="Capa_1" enable-background="new 0 0 512 512" height="512" viewBox="0 0 512 512" width="512" xmlns="http://www.w3.org/2000/svg"><g><path d="m256 376.999c-28.949 0-52.5 23.551-52.5 52.5s23.551 52.5 52.5 52.5c28.948 0 52.5-23.551 52.5-52.5s-23.552-52.5-52.5-52.5zm0 90c-20.678 0-37.5-16.822-37.5-37.5s16.822-37.5 37.5-37.5 37.5 16.822 37.5 37.5-16.822 37.5-37.5 37.5z"/><path d="m332.415 127.499c0 28.949 23.552 52.5 52.5 52.5s52.5-23.551 52.5-52.5c0-17.856-8.967-33.648-22.627-43.137 4.672-4.126 7.627-10.154 7.627-16.863 0-4.99-1.613-9.732-4.594-13.63-.649-4.864-2.861-9.358-6.39-12.887-3.529-3.528-8.023-5.739-12.886-6.389-3.898-2.98-8.641-4.594-13.631-4.594-4.989 0-9.731 1.613-13.63 4.594-4.864.649-9.358 2.861-12.887 6.39s-5.74 8.022-6.39 12.886c-2.98 3.898-4.594 8.64-4.594 13.63 0 6.709 2.955 12.737 7.627 16.863-13.658 9.489-22.625 25.281-22.625 43.137zm90 0c0 20.678-16.822 37.5-37.5 37.5s-37.5-16.822-37.5-37.5 16.822-37.5 37.5-37.5 37.5 16.822 37.5 37.5zm-52.5-52.5c-4.136 0-7.5-3.364-7.5-7.5 0-2.003.78-3.887 2.196-5.303 1.407-1.407 2.197-3.314 2.197-5.304 0-2.003.78-3.887 2.197-5.304 1.416-1.417 3.299-2.196 5.303-2.196 1.989 0 3.896-.79 5.303-2.196 1.417-1.417 3.301-2.197 5.304-2.197s3.887.78 5.303 2.196c1.406 1.407 3.314 2.197 5.304 2.197 2.004 0 3.888.78 5.304 2.196 1.416 1.417 2.196 3.3 2.196 5.304 0 1.989.79 3.897 2.197 5.304 1.416 1.416 2.196 3.299 2.196 5.303 0 4.136-3.364 7.5-7.5 7.5z"/><path d="m512 147.499c0-4.142-3.357-7.5-7.5-7.5s-7.5 3.358-7.5 7.5c0 35.073-26.891 63.973-61.136 67.191-3.374-11.371-13.913-19.691-26.364-19.691h-50c-12.666 0-23.353 8.61-26.532 20.282-42.445 3.344-75.968 38.928-75.968 82.218 0 4.142 3.357 7.5 7.5 7.5s7.5-3.358 7.5-7.5c0-34.684 26.298-63.329 60-67.073v44.332c-9.693 11.989-15 26.935-15 42.406v20.335c0 4.142 3.357 7.5 7.5 7.5h22.499v114.094l-24.872 8.291c-3.93 1.31-6.053 5.558-4.743 9.487 1.048 3.143 3.974 5.13 7.114 5.13.786 0 1.586-.125 2.373-.387l30-10c3.063-1.021 5.128-3.887 5.128-7.115v-119.5h45v37.5c0 5.166 1.799 10.214 5.063 14.215l39.937 48.956v28.829c0 4.142 3.357 7.5 7.5 7.5s7.5-3.358 7.5-7.5v-31.5c0-1.728-.597-3.402-1.688-4.741l-41.626-51.027c-.769-.942-1.686-2.528-1.686-4.732v-37.5h22.501c4.143 0 7.5-3.358 7.5-7.5v-20.335c0-15.472-5.307-30.417-15-42.406v-45.115c41.987-3.804 75-39.183 75-82.144zm-152.5 62.5h50c6.893 0 12.5 5.607 12.5 12.5v47.5h-75v-47.5c0-6.893 5.607-12.5 12.5-12.5zm77.5 120h-105v-12.835c0-11.687 3.905-22.982 11.038-32.165h82.924c7.133 9.183 11.038 20.478 11.038 32.165z"/><path d="m127.5 179.999c28.949 0 52.5-23.551 52.5-52.5v-52.5c0-24.813-20.187-45-45-45-13.093 0-25.207 5.509-33.752 15.233-14.778 1.852-26.248 14.495-26.248 29.767v52.5c0 28.949 23.551 52.5 52.5 52.5zm-37.5-105c0-8.271 6.729-15 15-15 2.359 0 4.58-1.109 5.997-2.996 5.731-7.629 14.48-12.004 24.004-12.004 16.542 0 30 13.458 30 30v15.808c-9.537-9.745-22.821-15.808-37.5-15.808s-27.964 6.063-37.501 15.808zm37.5 15c20.678 0 37.5 16.822 37.5 37.5s-16.822 37.5-37.5 37.5-37.5-16.822-37.5-37.5 16.822-37.5 37.5-37.5z"/><path d="m189.872 467.384-24.872-8.291v-129.902c9.27-9.472 15-22.423 15-36.692v-62.856c41.987-3.803 75-39.182 75-82.144 0-4.142-3.358-7.5-7.5-7.5s-7.5 3.358-7.5 7.5c0 35.073-26.891 63.972-61.136 67.191-3.374-11.371-13.913-19.691-26.364-19.691h-50c-12.451 0-22.99 8.32-26.364 19.691-34.245-3.219-61.136-32.118-61.136-67.191 0-4.142-3.358-7.5-7.5-7.5s-7.5 3.358-7.5 7.5c0 42.961 33.013 78.34 75 82.144v62.856c0 14.269 5.73 27.22 15 36.692v53.308c0 2.204-.917 3.79-1.687 4.733l-41.625 51.026c-1.092 1.338-1.688 3.013-1.688 4.741v31.5c0 4.142 3.358 7.5 7.5 7.5s7.5-3.358 7.5-7.5v-28.829l39.936-48.956c3.266-4.002 5.064-9.051 5.064-14.215v-42.576c6.824 3.25 14.452 5.076 22.5 5.076s15.676-1.825 22.5-5.076v124.576c0 3.228 2.066 6.094 5.128 7.115l30 10c.787.262 1.586.387 2.373.387 3.14 0 6.066-1.988 7.114-5.13 1.31-3.93-.814-8.177-4.743-9.487zm-24.872-244.885v62.5h-15v-75h2.5c6.893 0 12.5 5.607 12.5 12.5zm-30 62.5h-15v-75h15zm-32.5-75h2.5v75h-15v-62.5c0-6.893 5.607-12.5 12.5-12.5zm-11.745 90h14.245v2.5c0 4.142 3.358 7.5 7.5 7.5s7.5-3.358 7.5-7.5v-2.5h15v2.5c0 4.142 3.358 7.5 7.5 7.5s7.5-3.358 7.5-7.5v-2.5h14.245c-3.484 17.096-18.635 30-36.745 30s-33.261-12.904-36.745-30z"/></g></svg>