<svg id="Capa_1" enable-background="new 0 0 512 512" height="512" viewBox="0 0 512 512" width="512" xmlns="http://www.w3.org/2000/svg"><g><path d="m256 287.031c-59.806 0-112.268 53.013-112.275 112.262-.007 58.426 52.858 112.29 112.275 112.29 59.007 0 112.283-52.239 112.275-112.289-.007-60.061-51.847-112.263-112.275-112.263zm86.559 67.918c4.664 9.065 7.945 18.952 9.563 29.382l-15.46-11.233zm-10.503-16.215-10.32 31.762-24.612 11.144-33.624-24.43v-29.624l26.649-19.361c16.589 6.24 31.036 16.887 41.907 30.509zm-44.627 54.402-12.005 36.946h-38.848l-12.005-36.946 31.429-22.834zm-31.429-91.105c5.26 0 10.421.425 15.457 1.233l-15.457 11.23-15.457-11.229c5.036-.808 10.197-1.234 15.457-1.234zm-34.149 6.194 26.649 19.361v29.624l-33.625 24.43-24.612-11.144-10.32-31.762c10.872-13.622 25.319-24.269 41.908-30.509zm-52.41 46.724 5.897 18.149-15.46 11.233c1.618-10.43 4.899-20.317 9.563-29.382zm5.435 97.974c-9.453-14.255-15.251-31.131-16.05-49.287l26.208-19.042 24.612 11.144 13.05 40.165-14.553 17.02zm12.238 15h19.033l5.897 18.148c-9.258-4.71-17.667-10.857-24.93-18.148zm94.794 25.152c-8.252 2.283-16.939 3.509-25.908 3.509s-17.655-1.226-25.908-3.509l-10.064-30.972 14.553-17.019h42.837l14.553 17.019zm18.048-7.005 5.897-18.148h19.033c-7.263 7.292-15.672 13.439-24.93 18.148zm37.168-33.147h-33.266l-14.553-17.02 13.05-40.165 24.612-11.144 26.208 19.042c-.8 18.155-6.598 35.031-16.051 49.287zm131.976-416.275c-1.208-.79-2.626-1.231-4.1-1.231h-418c-1.474 0-2.893.442-4.1 1.231-4.653 2.133-7.9 6.824-7.9 12.269v291c-.183 5.934 7.221 9.705 11.911 6.065l47.527-34.565h58.162c4.143 0 7.5-3.358 7.5-7.5s-3.357-7.5-7.5-7.5h-13.483l-4.276-37.2h35.436l1.86 32.362c.229 3.989 3.535 7.07 7.48 7.07.145 0 .291-.004.438-.012 4.135-.238 7.295-3.783 7.057-7.918l-1.811-31.501h35.486v14.7c0 4.142 3.357 7.5 7.5 7.5s7.5-3.358 7.5-7.5v-14.7h40.424v9.02c0 4.142 3.357 7.5 7.5 7.5s7.5-3.358 7.5-7.5v-9.02h35.49l-1.811 31.501c-.238 4.135 2.922 7.68 7.057 7.918.147.008.292.012.438.012 3.945 0 7.252-3.081 7.48-7.07l1.86-32.362h35.436l-4.276 37.2h-13.485c-4.143 0-7.5 3.358-7.5 7.5s3.357 7.5 7.5 7.5h58.161l47.527 34.565c4.691 3.64 12.093-.132 11.911-6.065v-291c.001-5.445-3.246-10.136-7.899-12.269zm-305.686 103.169h-42.298l-4.276-37.2h44.436zm-5.138-89.4 2.138 37.2h-45.298l-4.276-37.2zm-46.259 141.6h-31.7l-6.414-37.2h33.838zm-6-52.2h-34.7l-6.414-37.2h36.838zm-10.276-89.4 4.276 37.2h-37.7l-6.414-37.2zm-45.741 274.772v-220.733l33.817 196.139zm32.903-118.172h30.838l4.276 37.2h-28.7zm15.414 89.4-6.414-37.2h27.838l4.276 37.2zm24.523-141.6h41.436l2.138 37.2h-39.298zm10.276 89.4-4.276-37.2h38.436l2.138 37.2zm87.67 0h-36.348l-2.138-37.2h38.486zm0-52.2h-39.348l-2.138-37.2h41.486zm0-52.2h-42.348l-2.138-37.2h44.486zm0-52.2h-45.348l-2.138-37.2h47.486zm55.424 156.6h-40.424v-37.2h40.424zm0-52.2h-40.424v-37.2h40.424zm0-52.2h-40.424v-37.2h40.424zm0-52.2h-40.424v-37.2h40.424zm51.352 156.6h-36.352v-37.2h38.49zm3-52.2h-39.352v-37.2h41.49zm3-52.2h-42.352v-37.2h44.49zm3-52.2h-45.352v-37.2h47.49zm79.697-37.2h39.838l-6.414 37.2h-37.7zm-6 52.2h36.838l-6.414 37.2h-34.7zm27.838 52.2-6.414 37.2h-31.7l4.276-37.2zm-84.373-104.4h47.436l-4.276 37.2h-45.298zm-3 52.2h44.436l-4.276 37.2h-42.298zm28.16 141.6h-36.298l2.138-37.2h38.436zm-33.298-52.2 2.138-37.2h41.436l-4.276 37.2zm68.097 104.4h-25.7l4.276-37.2h27.838zm-19.7-52.2 4.276-37.2h30.838l-6.414 37.2zm68.017 80.972-33.817-24.594 33.817-196.139zm17.5-324.772h-446.529c-17.9 0-32.479 14.562-32.5 32.459l-.471 322.03c-.006 4.143 3.347 7.505 7.489 7.511h.011c4.137 0 7.494-3.351 7.5-7.489l.471-322.033c.011-9.638 7.861-17.479 17.5-17.479h446.529c9.649 0 17.5 7.851 17.5 17.5v322c0 4.142 3.357 7.5 7.5 7.5s7.5-3.358 7.5-7.5v-322c0-17.92-14.579-32.499-32.5-32.499z"/></g></svg>