<?xml version="1.0" encoding="iso-8859-1"?>
<!-- Generator: Adobe Illustrator 17.1.0, SVG Export Plug-In . SVG Version: 6.00 Build 0)  -->
<!DOCTYPE svg PUBLIC "-//W3C//DTD SVG 1.1//EN" "http://www.w3.org/Graphics/SVG/1.1/DTD/svg11.dtd">
<svg version="1.1" id="Capa_1" xmlns="http://www.w3.org/2000/svg" xmlns:xlink="http://www.w3.org/1999/xlink" x="0px" y="0px"
	 viewBox="0 0 470.837 470.837" style="enable-background:new 0 0 470.837 470.837;" xml:space="preserve">
<path id="XMLID_373_" d="M411.143,171.441c-0.011-4.021-2.192-9.091-11.201-12.808c0.515-1.385,0.771-2.78,0.767-4.178
	c-0.009-3.049-1.441-5.822-4.032-7.809c-8.277-6.347-28.442-3.867-36.369-1.761c-9.561,2.54-11.617,3.5-14.704,5.111
	c-0.212,0.11-0.431,0.225-0.664,0.345c-0.851-0.053-1.706-0.075-2.552-0.075c-12.094,0.034-23.249,5.671-29.972,14.933
	c-4.35,0.146-8.647,0.47-12.902,0.967c7.899-10.343,13.38-21.283,17.028-30.234c7.555-5.544,14.217-13.544,18.898-22.734
	c5.709-11.21,9.071-15.039,13.328-19.886c1.786-2.034,3.812-4.339,6.143-7.343c3.213-4.146,6.096-8.364,8.339-12.198
	c8.903-15.218,11.615-29.769,7.256-38.924c-2.355-4.945-6.647-8.129-12.088-8.965c-2.361-0.362-4.865-0.311-7.447,0.118
	c-3.438-12.865-10.334-21.081-19.151-22.436c-9.065-1.395-17.857,4.575-24.372,16.242c-2.564-1.519-5.255-2.563-8.048-2.993
	c-5.437-0.833-10.49,0.913-14.221,4.923c-6.908,7.424-8.688,22.118-4.766,39.303c0.467,2.049,1.023,4.149,1.654,6.242
	c0.002,0.007,0.004,0.014,0.007,0.021c2.368,7.857,4.427,12.634,6.243,16.849c2.618,6.074,4.686,10.872,6.891,23.469
	c1.872,10.696,4.65,18.753,8.646,24.969c-4.867,11.537-12.944,26.202-25.539,37.564c-22.777,5.95-43.577,16.928-61.136,31.657
	c2.423-7.922,4.217-16.035,5.35-24.25c8.169-9.724,14.299-22.382,17.345-35.886c3.862-17.128,7.098-23.476,11.193-31.512
	c1.671-3.278,3.564-6.993,5.617-11.704c2.817-6.478,5.186-12.958,6.85-18.741c6.465-22.471,5.321-41.903-3.061-51.983
	c-4.276-5.143-10.32-7.619-17.01-6.968c-3.635,0.353-7.384,1.557-11.106,3.47c-8.544-16.36-20.119-25.274-31.803-24.139
	c-12.069,1.172-21.268,12.431-25.443,30.638c-4.648-1.722-9.101-2.449-13.169-2.053c-6.693,0.65-12.145,4.24-15.353,10.109
	c-6.287,11.503-3.671,30.793,6.996,51.599c1.287,2.51,2.691,5.033,4.176,7.502c0.017,0.03,0.035,0.06,0.053,0.089
	c5.744,9.54,10.057,15.14,13.861,20.081c5.632,7.314,10.08,13.091,17.391,29.349c6.034,13.42,12.713,23.305,20.34,30.076
	c-3.034,20.192-10.437,39.676-21.583,56.809c-0.555,0.817-2.72,4.076-2.864,4.371c-6.327,10.011-11.551,20.77-15.505,32.111
	c-0.144,0.327-2.96,9.22-4.013,13.429c-3.032,12.12-4.644,24.783-4.644,37.793v3.106l-23.008-107.319
	c2.568-10.174,0.221-20.971-6.409-29.887l-2.035-9.493c9.654-4.258,17.227-12.848,20.438-23.57l0.649-2.168
	c3.859-12.889,0.757-26.672-8.097-35.971c-1.587-1.667-3.937-2.369-6.177-1.849c-7.016,1.628-13.296,5.429-18.139,10.727
	l-5.797-27.037c9.076-8.959,13.4-22.21,11.382-35.547l-0.386-2.545c-2.237-14.782-11.888-27.158-25.187-32.296
	c-2.144-0.829-4.57-0.463-6.375,0.965c-11.183,8.845-16.739,23.522-14.5,38.297l0.386,2.551
	c2.047,13.524,10.296,25.033,21.868,30.83l1.18,5.502c-0.279-0.161-0.552-0.317-0.808-0.462c-11.655-6.719-25.782-6.869-36.868-0.39
	c-1.986,1.161-3.211,3.285-3.22,5.586c-0.051,12.842,7.158,24.992,18.782,31.691c0.666,0.389,1.362,0.791,1.996,1.15
	c8.484,4.893,18.285,6.303,27.282,4.21c-1.31,8.84,0.505,17.745,5.067,25.037c-6.728-2.632-14.091-3.262-21.145-1.59
	c-2.239,0.531-4.03,2.206-4.71,4.404c-3.794,12.266-0.444,25.991,8.742,35.815l1.552,1.662c7.402,7.916,17.994,12.036,28.747,11.452
	l34.788,162.263v77.216c0,3.59,2.91,6.5,6.5,6.5s6.5-2.91,6.5-6.5V386.57c0.002-0.088,0.002-0.176,0-0.265v-64.307
	c0-15.721,2.563-30.88,7.294-45.086c14.423-14.125,31.815-25.106,50.728-32.07c3.729,16.306,15.115,30.543,31.098,38.312
	l3.368,1.638c18.621,9.049,40.285,7.77,56.542-3.34c1.899-1.298,2.972-3.503,2.818-5.799c-1.31-19.647-13.689-37.472-32.302-46.516
	l-3.375-1.643c-18.301-8.894-39.55-7.81-55.709,2.781c-14.627,4.61-28.534,11.402-41.182,20.051c1.147-1.979,5.157-8.189,5.92-9.372
	c25.076-36.526,66.527-61.083,113.559-62.754c6.766,9.109,17.854,14.619,29.846,14.619c0.037,0,0.075,0,0.113,0
	c0.849-0.003,1.701-0.034,2.551-0.092c0.234,0.119,0.454,0.233,0.667,0.342c3.097,1.593,5.159,2.541,14.73,5.021
	c7.943,2.059,28.124,4.418,36.361-1.977c2.578-2.001,3.993-4.783,3.984-7.833c-0.004-1.258-0.22-2.512-0.645-3.759
	C409.045,180.45,411.154,175.366,411.143,171.441z M329.844,16.412c2.952,0.454,6.716,5.048,8.863,14.086
	c-4.591,2.565-9.092,6.059-13.143,10.271c-2.329-4.31-5.044-8.471-8.079-12.092C321.677,20.005,326.673,15.927,329.844,16.412z
	 M293.275,58.951c-0.064-0.269-0.127-0.537-0.188-0.804c-3.253-14.249-1.447-24.273,1.608-27.557
	c0.639-0.686,1.238-0.985,2.059-0.985c0.208,0,0.43,0.019,0.67,0.056c4.965,0.763,13.062,8.73,19.141,22.197
	C310.522,58.12,302.231,58.939,293.275,58.951z M300.256,79.005c-0.946-2.196-1.91-4.432-2.934-7.141
	c11.202-0.448,23.795-3.048,32.396-15.661c8.69-12.744,21.117-18.33,26.726-17.473c1.189,0.183,1.819,0.645,2.324,1.705
	c1.929,4.05,0.643,14.154-6.739,26.77c0,0,0,0,0,0.001c-1.964,3.356-4.521,7.091-7.391,10.795c-2.086,2.688-3.892,4.744-5.638,6.732
	c-4.473,5.092-8.696,9.902-15.145,22.564c-0.909,1.785-1.929,3.516-3.023,5.188c0.831-4.411,1.412-8.875,1.722-13.378
	c0.152-2.204-1.512-4.114-3.715-4.266c-2.204-0.152-4.113,1.511-4.266,3.716c-0.462,6.708-1.551,13.328-3.248,19.789
	c-1.335-3.648-2.436-7.95-3.314-12.967C305.545,91.278,303.093,85.59,300.256,79.005z M86.928,132.586
	c-0.627-0.356-1.276-0.73-1.93-1.111c-6.393-3.684-10.74-9.774-11.958-16.473c6.408-2.303,13.863-1.588,20.291,2.117
	c0.423,0.24,0.852,0.488,1.278,0.734l0.646,0.374c6.355,3.663,9.411,9.924,11.322,16.705
	C100.301,136.951,93.129,136.161,86.928,132.586z M103.899,88.451c-7.124-4.115-12.172-11.638-13.503-20.435l-0.385-2.543
	c-1.333-8.794,1.264-17.474,6.851-23.514c7.124,4.116,12.172,11.637,13.503,20.431l0.386,2.546
	C112.081,73.732,109.485,82.411,103.899,88.451z M125.674,211.856c-7.084,0.492-14.077-2.152-18.92-7.332l-1.546-1.655
	c-5.04-5.39-7.422-12.484-6.633-19.245c6.807-0.341,13.72,2.519,18.76,7.909c0,0,2.45,2.654,2.868,3.169
	c0.042,0.054,0.085,0.107,0.129,0.16C124.423,199.981,126.306,206.03,125.674,211.856z M124.043,166.539
	c-3.714-5.707-4.735-13.121-2.617-20.196l0.064-0.213c0.05-0.148,0.095-0.299,0.134-0.451l0.449-1.5
	c2.117-7.069,7.047-12.701,13.286-15.427c3.714,5.705,4.734,13.12,2.614,20.2l-0.646,2.16
	C135.21,158.181,130.282,163.813,124.043,166.539z M271.974,273.104l-3.375-1.642c-10.311-5.011-18.129-13.43-22.128-23.297
	c3.348,2.281,6.999,4.251,11.192,6.288c7.844,3.813,16.317,5.703,24.67,5.703c7.817,0,15.525-1.663,22.512-4.948
	c3.776,5.236,6.348,11.206,7.39,17.513C300.256,279.301,285.174,279.519,271.974,273.104z M284.284,239.187l3.371,1.641
	c4.367,2.122,8.279,4.865,11.655,8.06c-11.862,4.812-25.879,4.337-38.15-1.629c-5.871-2.852-10.384-5.423-14.473-9.017
	C258.187,233.001,272.042,233.237,284.284,239.187z M201.81,13.036c6.202-0.605,13.884,6.787,19.798,18.754
	c-6.309,5.667-12.081,13.154-16.499,21.652c-5.813-6.686-11.947-12.226-18.023-16.365C189.604,23.151,195.317,13.667,201.81,13.036z
	 M166.588,87.163c-0.494-0.901-0.973-1.804-1.434-2.704c-9.599-18.722-9.879-32.99-7.157-39.434c1.734-4.106,5.869-3.452,6.22-3.452
	c8.068,0,22.04,8.429,35.043,25.228C192.778,79.636,179.84,83.873,166.588,87.163z M200.922,142.08
	c-7.936-17.65-13.039-24.276-18.947-31.949c-2.563-3.329-5.185-6.734-8.288-11.375c15.475-4.168,32.041-11.045,39.383-31.206
	c4.61-12.663,12.387-22.643,19.913-28.406c0.334-0.205,0.644-0.436,0.928-0.69c3.862-2.788,7.62-4.44,10.808-4.75
	c2.439-0.235,4.216,0.485,5.759,2.34c4.472,5.378,6.38,19.855,0.563,40.076c-1.511,5.25-3.682,11.181-6.276,17.146
	c-1.894,4.346-3.615,7.724-5.279,10.989c-4.331,8.498-8.072,15.837-12.292,34.555c-1.313,5.819-3.295,11.424-5.806,16.608
	c-0.04-9.138-0.863-18.274-2.515-27.321c-0.397-2.173-2.478-3.614-4.653-3.217c-2.173,0.397-3.613,2.48-3.217,4.653
	c2.01,11.009,2.761,22.157,2.254,33.268C208.889,157.587,204.812,150.732,200.922,142.08z M323.904,171.597
	c3.698-4.388,9.115-7.294,15.148-8.102c-0.168,2.666-0.248,5.358-0.24,8.059c0.008,2.699,0.104,5.392,0.288,8.057
	C333.064,178.838,327.629,175.963,323.904,171.597z M388.276,174.939c-2.313,0.613-4.103,2.447-4.658,4.774s0.212,4.772,1.999,6.363
	c0.245,0.218,0.465,0.424,0.66,0.616c-4.847,0.928-14.617,0.872-22.552-1.185c-7.744-2.008-9.512-2.717-11.395-3.665
	c-0.334-3.39-0.509-6.851-0.519-10.328c-0.01-3.48,0.144-6.942,0.458-10.333c1.876-0.958,3.643-1.679,11.375-3.733
	c7.922-2.105,17.695-2.219,22.543-1.317c-0.332,0.33-0.731,0.697-1.213,1.102c-1.905,1.603-2.728,4.153-2.117,6.566
	c0.609,2.414,2.545,4.268,4.983,4.772c4.672,0.968,7.52,2.124,9.089,2.994C395.438,172.496,392.734,173.759,388.276,174.939z"/>
<g>
</g>
<g>
</g>
<g>
</g>
<g>
</g>
<g>
</g>
<g>
</g>
<g>
</g>
<g>
</g>
<g>
</g>
<g>
</g>
<g>
</g>
<g>
</g>
<g>
</g>
<g>
</g>
<g>
</g>
</svg>
