<?xml version="1.0" encoding="iso-8859-1"?>
<!-- Generator: Adobe Illustrator 19.0.0, SVG Export Plug-In . SVG Version: 6.00 Build 0)  -->
<svg version="1.1" id="Capa_1" xmlns="http://www.w3.org/2000/svg" xmlns:xlink="http://www.w3.org/1999/xlink" x="0px" y="0px"
	 viewBox="0 0 512 512" style="enable-background:new 0 0 512 512;" xml:space="preserve">
<g>
	<g>
		<path d="M502,355.713v-2.639c0-10.141-5.219-19.085-13.111-24.29C497.191,320.096,502,308.448,502,296
			c0-12.589-4.924-25.583-13.509-35.651c-7.413-8.693-16.624-14.251-26.491-16.13V75.5c0-20.678-16.822-37.5-37.5-37.5h-337
			C66.822,38,50,54.822,50,75.5v168.719c-9.867,1.879-19.078,7.437-26.491,16.13C14.924,270.417,10,283.411,10,296
			c0,12.448,4.808,24.096,13.111,32.784C15.219,333.988,10,342.933,10,353.073v2.639c-5.902,2.816-10,8.824-10,15.787v50
			c0,4.142,3.358,7.5,7.5,7.5s7.5-3.358,7.5-7.5v-50c0-1.378,1.122-2.5,2.5-2.5h80c1.378,0,2.5,1.122,2.5,2.5V399H83.5
			c-9.649,0-17.5,7.851-17.5,17.5v50c0,4.142,3.358,7.5,7.5,7.5c4.142,0,7.5-3.358,7.5-7.5v-50c0-1.378,1.122-2.5,2.5-2.5h80
			c1.378,0,2.5,1.122,2.5,2.5v50c0,4.142,3.358,7.5,7.5,7.5c4.142,0,7.5-3.358,7.5-7.5v-50c0-9.649-7.851-17.5-17.5-17.5h-16.167
			v-27.5c0-1.378,1.122-2.5,2.5-2.5h80c1.378,0,2.5,1.122,2.5,2.5V399H216.5c-9.649,0-17.5,7.851-17.5,17.5v50
			c0,4.142,3.358,7.5,7.5,7.5c4.142,0,7.5-3.358,7.5-7.5v-50c0-1.378,1.122-2.5,2.5-2.5h80c1.379,0,2.5,1.122,2.5,2.5v50
			c0,4.142,3.357,7.5,7.5,7.5s7.5-3.358,7.5-7.5v-50c0-9.649-7.851-17.5-17.5-17.5h-16.833v-27.5c0-1.378,1.121-2.5,2.5-2.5h80
			c1.379,0,2.5,1.122,2.5,2.5V399H349.5c-9.649,0-17.5,7.851-17.5,17.5v50c0,4.142,3.357,7.5,7.5,7.5s7.5-3.358,7.5-7.5v-50
			c0-1.378,1.121-2.5,2.5-2.5h80c1.379,0,2.5,1.122,2.5,2.5v50c0,4.142,3.357,7.5,7.5,7.5s7.5-3.358,7.5-7.5v-50
			c0-9.649-7.851-17.5-17.5-17.5H412v-27.5c0-1.378,1.121-2.5,2.5-2.5h80c1.379,0,2.5,1.122,2.5,2.5v50c0,4.142,3.357,7.5,7.5,7.5
			s7.5-3.358,7.5-7.5v-50C512,364.537,507.902,358.528,502,355.713z M68.641,333.281c0.821,3.357,3.829,5.719,7.285,5.719
			C83.687,339,90,345.313,90,353.073V354H25v-0.927C25,345.313,31.313,339,39.074,339c3.456,0,6.464-2.361,7.285-5.719
			c0.821-3.357-0.758-6.84-3.824-8.435C31.719,319.22,25,308.167,25,296c0-17.342,14.197-37.5,32.5-37.5
			c18.042,0,32.279,19.939,32.488,37.088L90,296c0,12.167-6.719,23.22-17.535,28.846C69.399,326.441,67.819,329.924,68.641,333.281z
			 M142.333,353.074v2.639c-5.902,2.816-10,8.824-10,15.787V399H115v-27.5c0-6.963-4.098-12.972-10-15.787v-2.639
			c0-10.141-5.219-19.085-13.111-24.29c6.724-7.035,11.154-16.013,12.596-25.784h38.363c1.443,9.771,5.872,18.748,12.596,25.784
			C147.551,333.988,142.333,342.933,142.333,353.074z M200.975,333.281c0.821,3.357,3.829,5.719,7.285,5.719
			c7.76,0,14.074,6.313,14.074,14.073V354h-65v-0.927c0-7.76,6.313-14.073,14.073-14.073c3.456,0,6.464-2.361,7.285-5.718
			c0.821-3.358-0.758-6.841-3.824-8.436c-10.815-5.626-17.534-16.679-17.532-28.868l0.01-0.387
			c0.209-17.152,14.446-37.091,32.488-37.091s32.279,19.939,32.488,37.088l0.012,0.412c0,12.167-6.719,23.22-17.535,28.846
			C201.733,326.441,200.153,329.924,200.975,333.281z M274.666,353.074v2.639c-5.902,2.816-10,8.824-10,15.787V399h-17.333v-27.5
			c0-6.963-4.098-12.972-10-15.787v-2.639c0-10.141-5.219-19.085-13.111-24.29c6.724-7.035,11.154-16.013,12.596-25.784h38.363
			c1.443,9.771,5.873,18.748,12.596,25.784C279.884,333.988,274.666,342.933,274.666,353.074z M333.308,333.282
			c0.82,3.357,3.829,5.719,7.285,5.719c7.761,0,14.074,6.313,14.074,14.073V354h-65v-0.927c0-7.76,6.313-14.073,14.073-14.073
			c3.456,0,6.465-2.361,7.285-5.719c0.822-3.357-0.757-6.84-3.824-8.435c-10.815-5.625-17.534-16.679-17.532-28.855l0.01-0.399
			c0.209-17.153,14.445-37.091,32.488-37.091c18.042,0,32.278,19.939,32.488,37.088l0.012,0.412c0,12.167-6.719,23.22-17.535,28.846
			C334.066,326.442,332.486,329.925,333.308,333.282z M407,353.074v2.639c-5.902,2.816-10,8.824-10,15.787V399h-17.333v-27.5
			c0-6.963-4.098-12.972-10-15.787v-2.639c0-10.141-5.219-19.085-13.112-24.29c6.724-7.035,11.155-16.013,12.597-25.784h38.363
			c1.443,9.771,5.873,18.748,12.596,25.784C412.218,333.988,407,342.933,407,353.074z M407.667,288h-38.665
			c-1.614-10.047-6.176-19.906-13.038-27.871c-9.239-10.724-21.241-16.629-33.797-16.629c-12.556,0-24.559,5.905-33.798,16.628
			c-6.857,7.958-11.416,17.808-13.035,27.872h-38.665c-1.614-10.047-6.176-19.906-13.038-27.871
			c-9.239-10.724-21.242-16.629-33.797-16.629c-12.556,0-24.559,5.905-33.797,16.629c-6.856,7.957-11.415,17.804-13.034,27.871
			h-38.666c-1.614-10.047-6.176-19.906-13.038-27.871c-7.378-8.563-16.521-14.043-26.297-15.907V75.5C65,63.093,75.093,53,87.5,53
			h337c12.406,0,22.5,10.093,22.5,22.5v168.721c-9.777,1.865-18.92,7.344-26.298,15.907
			C413.845,268.086,409.286,277.936,407.667,288z M465.642,333.281c0.82,3.357,3.829,5.719,7.285,5.719
			c7.76,0,14.073,6.313,14.073,14.073V354h-65v-0.927c0-7.76,6.313-14.073,14.073-14.073c3.456,0,6.465-2.361,7.285-5.719
			c0.821-3.357-0.758-6.84-3.824-8.435c-10.815-5.625-17.534-16.679-17.532-28.855l0.01-0.399
			c0.209-17.153,14.445-37.091,32.488-37.091C472.804,258.5,487,278.658,487,296c0,12.167-6.719,23.221-17.534,28.846
			C466.4,326.441,464.82,329.924,465.642,333.281z"/>
	</g>
</g>
<g>
	<g>
		<path d="M304.35,163.79l-90-45c-2.29-1.14-5.12-1.02-7.29,0.33c-2.23,1.38-3.56,3.76-3.56,6.38v60c0,4.14,3.36,7.5,7.5,7.5
			s7.5-3.36,7.5-7.5v-47.86l65.729,32.86c-79.888,39.949-77.209,38.64-77.209,38.64c-1.01,0.63-1.87,1.51-2.47,2.54
			c-0.01,0.01-0.02,0.03-0.03,0.04c-0.965,1.884-1.307,3.605-0.79,5.65c0,0,0.623,3.094,3.77,4.77c0.01,0,0.01,0,0.01,0
			c0.475,0.286,1.409,0.632,2.34,0.77v-0.05l0.01,0.05c1.235,0.195,2.654,0.012,2.93-0.13c0.686,0,90.946-45.263,91.56-45.57
			c2.561-1.28,4.15-3.85,4.15-6.71C308.5,167.64,306.91,165.07,304.35,163.79z"/>
	</g>
</g>
<g>
</g>
<g>
</g>
<g>
</g>
<g>
</g>
<g>
</g>
<g>
</g>
<g>
</g>
<g>
</g>
<g>
</g>
<g>
</g>
<g>
</g>
<g>
</g>
<g>
</g>
<g>
</g>
<g>
</g>
</svg>
