<?xml version="1.0" encoding="iso-8859-1"?>
<!-- Generator: Adobe Illustrator 19.0.0, SVG Export Plug-In . SVG Version: 6.00 Build 0)  -->
<svg version="1.1" id="Capa_1" xmlns="http://www.w3.org/2000/svg" xmlns:xlink="http://www.w3.org/1999/xlink" x="0px" y="0px"
	 viewBox="0 0 485.68 485.68" style="enable-background:new 0 0 485.68 485.68;" xml:space="preserve">
<g>
	<g>
		<path d="M280.48,2.88l-23.52,62.8l-31.52,39.44l-128,184c-0.934,1.338-1.436,2.929-1.44,4.56v16H68.32l-11.52-17.2l6.56-19.6
			l48-87.36c0.22-0.411,0.407-0.839,0.56-1.28l31.04-93.2l37.44-22.48c1.761-1.053,3.05-2.743,3.6-4.72l16-56l-16-4.32l-14.8,52.96
			L131.92,78.8c-1.626,1.002-2.867,2.525-3.52,4.32l-32,95.36l-46.48,85.6L3.6,295.04c-3.497,2.342-4.581,6.993-2.48,10.64l56,96
			c1.22,2.118,3.342,3.562,5.76,3.92l56,8H120c1.252-0.008,2.485-0.309,3.6-0.88l16-7.92c2.292-1.143,3.898-3.314,4.32-5.84
			c0.419-2.545-0.415-5.137-2.24-6.96l-22.16-22.08l-7.52-52.8v-20.96l126.24-181.44l32-40c0.533-0.681,0.964-1.435,1.28-2.24l24-64
			L280.48,2.88z M122.24,395.36l-3.6,2.32l-49.68-7.12l-50.24-86.4l22.32-14.88l-0.64,1.84c-0.77,2.344-0.416,4.912,0.96,6.96l16,24
			c1.472,2.235,3.964,3.586,6.64,3.6h33.04L104,374.8c0.231,1.723,1.018,3.324,2.24,4.56L122.24,395.36z"/>
	</g>
</g>
<g>
	<g>
		<path d="M352,274.96l-15.44-67.68l13.68-20.48L485.68,51.36L474.32,40l-136,136c-0.362,0.393-0.684,0.822-0.96,1.28l-14.32,21.36
			l-24.56,6.16L280,186.4v-16.88l37.04-29.6c0.642-0.563,1.207-1.209,1.68-1.92l71.52-111.28l15.44-15.36L394.32,0l-16,16
			c-0.39,0.418-0.739,0.874-1.04,1.36L306,128.24l-38.96,31.2l-40,32c-3.289,2.62-3.988,7.339-1.6,10.8l72,104
			c0.651,0.942,1.497,1.733,2.48,2.32l40,24c3.144,1.883,7.166,1.388,9.76-1.2l16-16c2.436-2.457,3.017-6.201,1.44-9.28L352,274.96z
			 M342.72,315.6l-33.12-19.92l-66.8-96l21.2-17.36v7.36c-0.012,2.126,0.823,4.17,2.32,5.68l24,24c2.074,2.124,5.154,2.925,8,2.08
			l24-6l14.16,64c0.067,0.626,0.201,1.243,0.4,1.84l13.36,26.8L342.72,315.6z"/>
	</g>
</g>
<g>
	<g>
		<polygon points="120,413.68 0,413.68 0,429.68 152,429.68 152,413.68 		"/>
	</g>
</g>
<g>
	<g>
		<polygon points="344,333.68 224,333.68 224,349.68 352,349.68 352,333.68 		"/>
	</g>
</g>
<g>
	<g>
		<rect x="400" y="469.68" width="80" height="16"/>
	</g>
</g>
<g>
	<g>
		<rect x="368" y="469.68" width="16" height="16"/>
	</g>
</g>
<g>
</g>
<g>
</g>
<g>
</g>
<g>
</g>
<g>
</g>
<g>
</g>
<g>
</g>
<g>
</g>
<g>
</g>
<g>
</g>
<g>
</g>
<g>
</g>
<g>
</g>
<g>
</g>
<g>
</g>
</svg>
