<?xml version="1.0"?>
<svg xmlns="http://www.w3.org/2000/svg" id="Layer_1" data-name="Layer 1" viewBox="0 0 512 512" width="512" height="512"><title>Entrance piller</title><path d="M456,161a6,6,0,0,0-6-6H61a6,6,0,0,0,0,12H450A6,6,0,0,0,456,161Z"/><path d="M477.385,133.742,258.756,20.693a6.011,6.011,0,0,0-5.512,0L34.615,133.742a6,6,0,0,0,2.756,11.33H474.629a6,6,0,0,0,2.756-11.33Zm-415.347-.67L256,32.778,449.962,133.072Z"/><path d="M118.426,414.6a6,6,0,0,0-6,6v15.913H86.112a6,6,0,0,0-4.756,2.342l-19.2,24.955a6,6,0,0,0,4.756,9.658H445.084a6,6,0,0,0,4.756-9.658l-19.2-24.955a6,6,0,0,0-4.756-2.342H399.574V420.6a6,6,0,0,0-6-6h-8.452l-1.929-198.03c-.012-2.265.876-2.548,1.354-2.7a5.815,5.815,0,0,1,5.945,2.3c2.024,2.891.758,7.69-3.471,13.17a6,6,0,0,0,4.75,9.666h.967c17.144,0,30.574-13.868,30.574-31.572A31.539,31.539,0,0,0,416.689,188H431a6,6,0,0,0,0-12H394.692l-.068-.008V176H80a6,6,0,0,0,0,12H95.117a31.524,31.524,0,0,0,25.145,50.6,6,6,0,0,0,4.749-9.666c-2.311-3-5.783-8.592-3.082-12.452a8.243,8.243,0,0,1,8.281-2.941c1.029.327,1.627.855,1.629,2.57L126.95,414.6Zm6,12h41.429v9.913H124.426Zm37.05-210.03c-.013-2.265.876-2.548,1.353-2.7a5.816,5.816,0,0,1,5.945,2.3c1.975,2.82.818,7.461-3.17,12.775a6,6,0,0,0,4.417,10.061h.021a.2.2,0,0,1,.035,0A31.627,31.627,0,0,0,194.961,188H317.04a31.626,31.626,0,0,0,24.939,51.007,6,6,0,0,0,4.75-9.666c-4.229-5.48-5.5-10.279-3.471-13.17a5.816,5.816,0,0,1,5.945-2.3c.478.152,1.366.435,1.354,2.673L348.592,414.6h-8.447a6,6,0,0,0-6,6v15.913H177.855V420.6a6,6,0,0,0-6-6H163.4ZM432.9,461.467H79.1l9.964-12.955H422.934Zm-45.324-24.955H346.145V426.6h41.429Zm23.738-229.077a19.5,19.5,0,0,1-8.4,16.564,18.221,18.221,0,0,0-2.589-14.71c-4.324-6.177-12.49-9.06-19.415-6.855-6.029,1.919-9.752,7.36-9.715,14.226L373.12,414.6H360.594l1.963-197.965c.037-6.84-3.686-12.281-9.715-14.2-6.932-2.2-15.093.68-19.415,6.855a18.137,18.137,0,0,0-2.708,14.147A19.559,19.559,0,0,1,339.753,188h54.195A19.45,19.45,0,0,1,411.312,207.435Zm-277.463-5.327c-7.692-2.443-17.046.775-21.751,7.5a18.038,18.038,0,0,0-2.84,13.6A19.55,19.55,0,0,1,115.774,188h56.474a19.558,19.558,0,0,1,9.07,35.409,18.125,18.125,0,0,0-2.713-14.12c-4.324-6.177-12.488-9.06-19.415-6.855-6.029,1.919-9.752,7.36-9.714,14.226L151.4,414.6H138.953l4.884-198.255c0-.038,0-.076,0-.115C143.876,209.39,140.142,204.111,133.849,202.108Z"/><path d="M221.846,87.379A34.154,34.154,0,1,0,256,53.224,34.192,34.192,0,0,0,221.846,87.379Zm56.308,0A22.154,22.154,0,1,1,256,65.224,22.179,22.179,0,0,1,278.154,87.379Z"/><path d="M473,480H39a6,6,0,0,0,0,12H473a6,6,0,0,0,0-12Z"/></svg>
