<svg id="Outline" enable-background="new 0 0 512 512" height="512" viewBox="0 0 512 512" width="512" xmlns="http://www.w3.org/2000/svg"><path d="m496 176c-.1-53-43-95.9-96-96h-288c-53 0-96 42.9-96 95.9 0 18 5 35.5 14.5 50.8l20.7 159.9c3.6 28.4 29.5 48.6 57.9 45.1 20.7-2.6 37.8-17.3 43.5-37.4l31-106.2h144.7l31 106.2c7.8 27.6 36.4 43.7 64 35.9 20.1-5.7 34.8-22.8 37.4-43.5l20.7-159.9c9.6-15.3 14.6-32.9 14.6-50.8zm-16 0c0 44.2-35.8 80-80 80s-80-35.8-80-80 35.8-80 80-80c44.2.1 79.9 35.8 80 80zm-179.9-80c-11.4 14.1-19.5 30.5-24 48h-40.1c-4.5-17.5-12.7-33.9-24-48zm-188.1 0c44.2 0 80 35.8 80 80s-35.8 80-80 80-80-35.8-80-80c.1-44.2 35.8-79.9 80-80zm332.9 288.6c-2.5 19.7-20.4 33.6-40.1 31.2-14.4-1.8-26.2-12-30.1-26l-32.7-112c-1-3.4-4.1-5.8-7.7-5.8h-156.6c-3.6 0-6.7 2.3-7.7 5.8l-32.7 112.1c-5.4 19.1-25.2 30.2-44.3 24.8-13.9-3.9-24.1-15.8-25.9-30.1l-17.6-135.8c40.2 34.5 100.8 29.9 135.3-10.3s29.9-100.8-10.3-135.3c-3-2.6-6.2-5-9.5-7.2h25.3c16 15.6 27 35.7 31.4 57.6.8 3.7 4 6.4 7.8 6.4h52.8c3.8 0 7.1-2.7 7.8-6.4 4.4-21.9 15.4-42 31.4-57.6h25.5c-44.2 29.2-56.3 88.8-27.1 133s88.8 56.3 133 27.1c3.4-2.2 6.6-4.6 9.6-7.3z"/><path d="m400 160c13.3 0 24-10.7 24-24s-10.7-24-24-24-24 10.7-24 24c0 13.2 10.8 24 24 24zm0-32c4.4 0 8 3.6 8 8s-3.6 8-8 8-8-3.6-8-8 3.6-8 8-8z"/><path d="m400 192c-13.3 0-24 10.7-24 24s10.7 24 24 24 24-10.7 24-24c0-13.2-10.8-24-24-24zm0 32c-4.4 0-8-3.6-8-8s3.6-8 8-8 8 3.6 8 8-3.6 8-8 8z"/><path d="m416 176c0 13.3 10.7 24 24 24s24-10.7 24-24-10.7-24-24-24c-13.2 0-24 10.8-24 24zm24-8c4.4 0 8 3.6 8 8s-3.6 8-8 8-8-3.6-8-8 3.6-8 8-8z"/><path d="m336 176c0 13.3 10.7 24 24 24s24-10.7 24-24-10.7-24-24-24c-13.2 0-24 10.8-24 24zm24-8c4.4 0 8 3.6 8 8s-3.6 8-8 8-8-3.6-8-8 3.6-8 8-8z"/><path d="m72 200h16v16c0 4.4 3.6 8 8 8h32c4.4 0 8-3.6 8-8v-16h16c4.4 0 8-3.6 8-8v-32c0-4.4-3.6-8-8-8h-16v-16c0-4.4-3.6-8-8-8h-32c-4.4 0-8 3.6-8 8v16h-16c-4.4 0-8 3.6-8 8v32c0 4.4 3.6 8 8 8zm8-32h16c4.4 0 8-3.6 8-8v-16h16v16c0 4.4 3.6 8 8 8h16v16h-16c-4.4 0-8 3.6-8 8v16h-16v-16c0-4.4-3.6-8-8-8h-16z"/><path d="m240 240h-24c-4.4 0-8 3.6-8 8s3.6 8 8 8h24c4.4 0 8-3.6 8-8s-3.6-8-8-8z"/><path d="m296 240h-24c-4.4 0-8 3.6-8 8s3.6 8 8 8h24c4.4 0 8-3.6 8-8s-3.6-8-8-8z"/><path d="m280 200c0-13.3-10.7-24-24-24s-24 10.7-24 24 10.7 24 24 24c13.2 0 24-10.8 24-24zm-24 8c-4.4 0-8-3.6-8-8s3.6-8 8-8 8 3.6 8 8-3.6 8-8 8z"/></svg>