<svg height="512pt" viewBox="0 -20 512 512" width="512pt" xmlns="http://www.w3.org/2000/svg"><path d="m90 266.128906c2.628906 0 5.210938-1.070312 7.070312-2.929687 1.859376-1.859375 2.929688-4.4375 2.929688-7.070313 0-2.640625-1.070312-5.207031-2.929688-7.070312-1.859374-1.859375-4.441406-2.929688-7.070312-2.929688s-5.210938 1.070313-7.070312 2.929688c-1.859376 1.863281-2.929688 4.429687-2.929688 7.070312 0 2.632813 1.070312 5.210938 2.929688 7.070313 1.859374 1.859375 4.441406 2.929687 7.070312 2.929687zm0 0"/><path d="m412.871094 262.875c9.316406 4.539062 19.539062 6.898438 30.128906 6.898438 38.046875 0 69-30.953126 69-69 0-34.515626-25.480469-63.195313-58.617188-68.21875 1.46875-7.230469 2.210938-14.609376 2.210938-22.054688 0-60.929688-49.570312-110.5-110.5-110.5-60.933594 0-110.5 49.570312-110.5 110.5 0 3.574219.171875 7.15625.515625 10.71875-37.613281 10.714844-64.007813 45.050781-64.007813 85.019531 0 14.097657 3.25 27.625 9.476563 39.890625h-50.578125c-5.523438 0-10 4.476563-10 10 0 5.519532 4.476562 10 10 10h116v44h-226v-44h30c5.523438 0 10-4.480468 10-10 0-5.523437-4.476562-10-10-10h-40c-5.523438 0-10 4.476563-10 10v64c0 5.519532 4.476562 10 10 10h30v35.871094h-30c-5.523438 0-10 4.476562-10 10v40c0 5.523438 4.476562 10 10 10h30v26h-30c-5.523438 0-10 4.476562-10 10s4.476562 10 10 10h438c5.523438 0 10-4.476562 10-10s-4.476562-10-10-10h-1.011719c.058594-1.070312.097657-2.144531.097657-3.21875 0-31.585938-25.695313-57.28125-57.28125-57.28125-12.660157 0-24.835938 4.25-34.710938 11.769531v-98.300781c25.085938-3.394531 46.910156-19.363281 57.777344-42.09375zm-208.957032-16.746094c-8.390624-11.664062-12.8125-25.394531-12.8125-39.890625 0-33.46875 23.914063-61.839843 56.863282-67.457031 2.636718-.449219 4.984375-1.9375 6.519531-4.132812 1.53125-2.195313 2.121094-4.914063 1.632813-7.546876-1.011719-5.457031-1.523438-11.042968-1.523438-16.601562 0-49.902344 40.597656-90.5 90.5-90.5 49.898438 0 90.5 40.597656 90.5 90.5 0 9.636719-1.511719 19.132812-4.492188 28.21875-1.023437 3.113281-.453124 6.527344 1.523438 9.144531 1.972656 2.613281 5.105469 4.097657 8.378906 3.964844.660156-.027344 1.324219-.054687 1.996094-.054687 27.019531 0 49 21.980468 49 49 0 27.019531-21.980469 49-49 49-10.636719 0-20.75-3.347657-29.25-9.683594-2.644531-1.972656-6.089844-2.515625-9.207031-1.449219-3.121094 1.0625-5.515625 3.597656-6.402344 6.773437-5.703125 20.421876-22.699219 35.523438-43.046875 39.304688v-65.960938l49.632812-49.636718c3.90625-3.90625 3.90625-10.238282 0-14.144532-3.902343-3.902343-10.234374-3.902343-14.140624 0l-35.492188 35.496094v-40.023437c0-5.523438-4.480469-10-10-10-5.523438 0-10 4.476562-10 10v64.160156.007813 11.78125l-38.746094-38.746094c-3.90625-3.90625-10.238281-3.90625-14.144531 0-3.90625 3.902344-3.90625 10.234375 0 14.140625l52.273437 52.277343c.199219.195313.40625.375.613282.550782v30.117187c-11.554688-2.09375-22.074219-7.8125-30.300782-16.636719-3.128906-3.359374-8.140624-4.15625-12.15625-1.933593-8.199218 4.535156-17.296874 7.332031-26.636718 8.214843v-18.257812c0-5.523438-4.476563-10-10-10h-52.082032zm52.085938 84c5.523438 0 10-4.480468 10-10v-25.679687c10.226562-.75 20.269531-3.269531 29.605469-7.433594 11.109375 9.722656 24.898437 15.980469 39.488281 17.957031v105.347656c-22.550781 2.609376-40.75 19.683594-45.050781 41.679688h-64.042969v-26h30c5.523438 0 10-4.476562 10-10v-40c0-5.523438-4.476562-10-10-10h-30v-35.871094zm-196 0h146v35.871094h-146zm-40 55.871094h226v20h-226zm40 40h146v26h-146zm299.507812 1.066406c7.003907-9.746094 18.328126-15.566406 30.296876-15.566406 20.554687 0 37.28125 16.726562 37.28125 37.28125 0 1.074219-.046876 2.148438-.140626 3.21875h-116.277343c4.210937-12.785156 16.265625-22.039062 30.441406-22.039062 2.644531 0 5.28125.328124 7.839844.96875 3.976562 1 8.164062-.53125 10.558593-3.863282zm0 0"/><path d="m345.089844 120.449219c2.640625 0 5.210937-1.070313 7.070312-2.929688s2.929688-4.441406 2.929688-7.070312c0-2.628907-1.070313-5.210938-2.929688-7.070313s-4.429687-2.929687-7.070312-2.929687c-2.628906 0-5.210938 1.070312-7.070313 2.929687s-2.929687 4.441406-2.929687 7.070313c0 2.628906 1.070312 5.210937 2.929687 7.070312s4.441407 2.929688 7.070313 2.929688zm0 0"/></svg>