<svg id="Capa_1" enable-background="new 0 0 512 512" height="512" viewBox="0 0 512 512" width="512" xmlns="http://www.w3.org/2000/svg"><g><path d="m499.357 140.591c6.971 0 12.643-5.671 12.643-12.643v-17.977c0-6.971-5.672-12.643-12.643-12.643h-303.912c-4.143 0-7.5 3.358-7.5 7.5s3.357 7.5 7.5 7.5h217.901v13.262h-312.297v-13.262h64.396c4.143 0 7.5-3.358 7.5-7.5s-3.357-7.5-7.5-7.5h-152.802c-6.971.001-12.643 5.672-12.643 12.643v17.977c0 6.971 5.672 12.643 12.643 12.643h73.406v55.464l-62.214 63.923c-.069.071-.129.148-.195.221h-16.14c-4.143 0-7.5 3.358-7.5 7.5s3.357 7.5 7.5 7.5h5.019c8.895 26.034 22.067 49.389 39.207 69.479 37.531 43.991 92.67 69.41 151.535 69.966.198.016.396.026.598.026h102.912c38.412 0 75.743-10.638 107.955-30.765 3.514-2.195 4.582-6.822 2.387-10.335s-6.823-4.581-10.334-2.386c-29.827 18.636-64.409 28.486-100.008 28.486h-70.874c42.348-24.711 75.859-62.009 96.033-107.505l7.354-16.584h144.145c-8.212 22.138-19.813 42.069-34.565 59.361-5.327 6.245-11.143 12.187-17.284 17.662-3.092 2.756-3.364 7.497-.608 10.589s7.497 3.365 10.589.608c6.65-5.927 12.947-12.361 18.716-19.124 17.14-20.09 30.313-43.445 39.207-69.479h5.018c4.143 0 7.5-3.358 7.5-7.5s-3.357-7.5-7.5-7.5h-13.745c-.066-.073-.125-.15-.194-.221l-62.214-63.924v-55.463h71.008zm-71.01-28.262h68.653v13.262h-68.653zm-413.347 13.262v-13.262h71.049v13.262zm79.724 83.058 61.014 51.55h-111.186zm107.692 190.985c-54.149-.788-104.782-24.255-139.279-64.69-14.752-17.292-26.353-37.223-34.565-59.361h144.952c4.237 6.467 14.076 21.229 26.24 37.793 19.39 26.404 36.295 46.132 50.365 58.796-14.54 11.005-30.535 20.245-47.713 27.462zm156.243-139.435 61.014-51.55 50.171 51.55zm54.688-65.843-77.079 65.124c-.266.224-.504.468-.731.719h-18.535c-4.143 0-7.5 3.358-7.5 7.5s3.357 7.5 7.5 7.5h6.042l-4.827 10.887c-13.168 29.696-32.417 55.653-56.298 76.495-25.311-22.009-56.63-66.585-70.634-87.383h3.713c4.143 0 7.5-3.358 7.5-7.5s-3.357-7.5-7.5-7.5h-16.138c-.226-.251-.465-.495-.731-.719l-77.08-65.124v-53.764h312.298z"/></g></svg>