<?xml version="1.0" encoding="iso-8859-1"?>
<!-- Generator: Adobe Illustrator 19.0.0, SVG Export Plug-In . SVG Version: 6.00 Build 0)  -->
<svg version="1.1" id="Capa_1" xmlns="http://www.w3.org/2000/svg" xmlns:xlink="http://www.w3.org/1999/xlink" x="0px" y="0px"
	 viewBox="0 0 497.736 497.736" style="enable-background:new 0 0 497.736 497.736;" xml:space="preserve">
<g>
	<g>
		<path d="M497.736,0.868H449.48l-53.368,224h-10.36l-19.456,77.824c-2.672,10.696-12.248,18.176-23.28,18.176H159.504
			c9.656-13.448,21.992-24.784,36.464-33.056l4.032-2.304v-44.64h-30.608c32.648-19.592,54.608-55.232,54.608-96
			c0-61.76-50.24-112-112-112s-112,50.24-112,112c0,40.768,21.96,76.408,54.608,96H24v44.64l4.032,2.304
			c32.8,18.744,54.424,52.392,57.84,90.016l10.824,119.04h30.608l7.144-78.592l28.784,50.376
			c9.944,17.4,28.576,28.216,48.624,28.216H353.36c26.12,0,49.128-18.512,54.712-44.032l49.864-227.968h-9.2L497.736,0.868z
			 M462.12,16.868h15.744l-45.504,208h-19.8L462.12,16.868z M16,144.868c0-52.936,43.064-96,96-96c52.936,0,96,43.064,96,96
			c0,52.936-43.064,96-96,96C59.064,240.868,16,197.804,16,144.868z M40,272.868v-16h144v16H40z M112,366.796
			c0,7.976,2.096,15.856,6.048,22.784l2.368,4.144l-7.72,87.144h-1.392l-9.496-104.496c-3.112-34.216-19.608-65.408-45.104-87.504
			h110.368c-11.744,10.192-21.688,22.384-29.224,36.16l-0.216,0.632C122.472,333.172,112,348.764,112,366.796z M392.44,449.412
			c-3.984,18.232-20.424,31.456-39.08,31.456H211.856c-14.32,0-27.624-7.728-34.728-20.16l-45.184-79.072
			c-2.584-4.512-3.944-9.64-3.944-14.84c0-16.496,13.424-29.928,29.928-29.928h185.088c18.392,0,34.344-12.464,38.808-30.304
			l16.424-65.696h39.816L392.44,449.412z"/>
	</g>
</g>
<g>
	<g>
		<circle cx="112" cy="72.868" r="8"/>
	</g>
</g>
<g>
	<g>
		<circle cx="112" cy="104.868" r="8"/>
	</g>
</g>
<g>
	<g>
		<circle cx="112" cy="144.868" r="8"/>
	</g>
</g>
<g>
	<g>
		<path d="M89.368,110.924c-3.12-3.12-8.184-3.12-11.312,0c-3.128,3.128-3.128,8.192,0,11.312c3.128,3.128,8.192,3.128,11.312,0
			C92.496,119.108,92.496,114.044,89.368,110.924z"/>
	</g>
</g>
<g>
	<g>
		<circle cx="72" cy="144.868" r="8"/>
	</g>
</g>
<g>
	<g>
		<path d="M89.368,167.492c-3.12-3.12-8.184-3.12-11.312,0c-3.128,3.128-3.128,8.192,0,11.312c3.128,3.128,8.192,3.128,11.312,0
			C92.496,175.676,92.496,170.612,89.368,167.492z"/>
	</g>
</g>
<g>
	<g>
		<circle cx="112" cy="184.868" r="8"/>
	</g>
</g>
<g>
	<g>
		<path d="M145.944,167.5c-3.128-3.128-8.192-3.128-11.312,0c-3.128,3.128-3.128,8.192,0,11.312c3.12,3.12,8.184,3.12,11.312,0
			C149.072,175.684,149.072,170.62,145.944,167.5z"/>
	</g>
</g>
<g>
	<g>
		<circle cx="152" cy="144.868" r="8"/>
	</g>
</g>
<g>
	<g>
		<path d="M145.944,110.932c-3.128-3.128-8.192-3.128-11.312,0c-3.128,3.128-3.128,8.192,0,11.312c3.12,3.12,8.184,3.12,11.312,0
			C149.072,119.116,149.072,114.052,145.944,110.932z"/>
	</g>
</g>
<g>
	<g>
		<circle cx="76" cy="82.516" r="8"/>
	</g>
</g>
<g>
	<g>
		<path d="M53.648,101.94c-3.832-2.208-8.72-0.896-10.928,2.928c-2.208,3.824-0.896,8.72,2.928,10.928
			c3.824,2.208,8.72,0.896,10.928-2.928S57.472,104.148,53.648,101.94z"/>
	</g>
</g>
<g>
	<g>
		<circle cx="40" cy="144.868" r="8"/>
	</g>
</g>
<g>
	<g>
		<path d="M56.576,176.868c-2.208-3.824-7.104-5.136-10.928-2.928c-3.832,2.208-5.136,7.104-2.928,10.928
			c2.208,3.824,7.104,5.136,10.928,2.928C57.472,185.588,58.784,180.692,56.576,176.868z"/>
	</g>
</g>
<g>
	<g>
		<circle cx="75.994" cy="207.219" r="8"/>
	</g>
</g>
<g>
	<g>
		<circle cx="112" cy="216.868" r="8"/>
	</g>
</g>
<g>
	<g>
		<circle cx="147.991" cy="207.222" r="8"/>
	</g>
</g>
<g>
	<g>
		<path d="M178.352,173.94c-3.824-2.208-8.72-0.896-10.928,2.928s-0.896,8.72,2.928,10.928c3.824,2.208,8.72,0.896,10.928-2.928
			C183.488,181.044,182.184,176.148,178.352,173.94z"/>
	</g>
</g>
<g>
	<g>
		<circle cx="184" cy="144.868" r="8"/>
	</g>
</g>
<g>
	<g>
		<circle cx="174.352" cy="108.868" r="8"/>
	</g>
</g>
<g>
	<g>
		<circle cx="148" cy="82.516" r="8"/>
	</g>
</g>
<g>
	<g>
		<path d="M371.792,344.868l-1.8,0.992c-8.328,4.584-17.656,7.008-26.976,7.008H157.928c-7.68,0-13.928,6.248-13.928,13.928
			c0,2.408,0.632,4.792,1.832,6.904l45.184,79.064c4.256,7.464,12.24,12.104,20.84,12.104H353.36
			c11.192,0,21.056-7.936,23.448-18.864l22.12-101.136H371.792z M373.808,384.868H336v16h34.304l-3.496,16H240v16h123.304
			l-2.128,9.712c-0.792,3.648-4.072,6.288-7.808,6.288H211.856c-2.864,0-5.528-1.536-6.944-4.032l-6.84-11.968H224v-16h-35.072
			l-9.144-16H320v-16H170.64l-9.144-16h181.512c11.328,0,22.632-2.76,32.832-8h3.216L373.808,384.868z"/>
	</g>
</g>
<g>
</g>
<g>
</g>
<g>
</g>
<g>
</g>
<g>
</g>
<g>
</g>
<g>
</g>
<g>
</g>
<g>
</g>
<g>
</g>
<g>
</g>
<g>
</g>
<g>
</g>
<g>
</g>
<g>
</g>
</svg>
