<?xml version="1.0"?>
<svg xmlns="http://www.w3.org/2000/svg" viewBox="0 0 512 512" width="512" height="512"><g id="Outline"><path d="M432,472v16a8,8,0,0,0,8,8h48a8,8,0,0,0,8-8,62.986,62.986,0,0,0-20.209-46.156l-86.364-79.722q-.209-.192-.429-.369l-79.207-63.365c-3.32-2.657-5.946-7.928-8.479-11.306-19.914-26.552-46.572-47.126-66.6-73.578-10.08-13.312-17.009-28.458-25.948-42.5a279.057,279.057,0,0,0-32.621-41.842c-6.122-6.475-42.828-39.146-42.828-39.146L53.352,18.054a8,8,0,0,0-9.79-.71l-24,16A8,8,0,0,0,16,40V56a8,8,0,0,0,3.884,6.86L59.039,86.354,106.4,133.719l-1.988.293-3.895-2.154c-.117-.064-.235-.126-.355-.184a35.966,35.966,0,0,0-27.652-1.7,36.494,36.494,0,0,0-12.254,7.161,56.274,56.274,0,0,0-16.779,21.754,43.8,43.8,0,0,0,.286,34.815A42.343,42.343,0,0,0,56,209.986V246.64a25.281,25.281,0,0,1-17.33,24.03V217.33a25.277,25.277,0,0,1,3.682-13.166l-13.663-8.328A41.286,41.286,0,0,0,22.67,217.33v51.45l-5.824,11.64a8,8,0,0,0,1.112,8.824c5.7,6.562,19.327-1.246,25.778-3.393A41.263,41.263,0,0,0,72,246.64v-27.7c12.077,4.48,24.787,5.35,32.764,5.349,1.915,0,3.554-.05,4.85-.111l4.03,2.967a.631.631,0,0,1-.044.058L94.3,252.938a30.022,30.022,0,0,0-5.965,19.214l1.352,32.476A32.053,32.053,0,0,0,64,336V457.3a1.3,1.3,0,0,1-.891,1.23l-11.3,3.768A17.3,17.3,0,0,0,57.3,496H104a7.994,7.994,0,0,0,3.578-.845l10.842-5.421,3.923,3.923A8,8,0,0,0,128,496h8a8,8,0,0,0,8-8V320h56a8,8,0,0,0,8-8V301.953l68.95-20.685L297.6,308.8a8.038,8.038,0,0,0,1.4,1.447l79.779,63.823,32.3,29.818-15.152,20.2-79.816-46.95-40-24A8.009,8.009,0,0,0,272,352H160v16H269.784l38.159,22.9,127.089,74.757-.689.69A8,8,0,0,0,432,472ZM69.657,74.343a8.05,8.05,0,0,0-1.541-1.2L32,51.471v-7.19L47.268,34.1l75.38,67.842.083.075,23.614,20.661a263.47,263.47,0,0,1,57.063,70.612c-9.742.038-24.47-2.278-36.878-14.122l-7.375-14.75a7.986,7.986,0,0,0-1.5-2.079Zm80.86,108.58-2.771,3.359-9.521-7.314,5.831-7.6,1.369,1.368ZM87.886,206.751c-15.278-2.9-25.17-9.4-29.4-19.321-5.63-13.2-.467-24.031,4.828-30.775l8.521,16.628A17.9,17.9,0,0,0,91.6,201.425l2.008-.693,4.346,7.3A87.149,87.149,0,0,1,87.886,206.751ZM80,336a16.014,16.014,0,0,1,10.373-14.959L93.661,400H80ZM76,480H57.3a1.3,1.3,0,0,1-1.3-1.3,1.324,1.324,0,0,1,.891-1.23l11.285-3.763A17.283,17.283,0,0,0,80,457.3V416H94.327l1.561,37.482Zm56.422-207.155A8,8,0,0,0,128,280V476.687l-2.343-2.344a8,8,0,0,0-9.235-1.5L102.111,480H96l14.4-19.2a8,8,0,0,0,1.593-5.133l-7.67-184.179a13.98,13.98,0,0,1,2.778-8.949l12.161-16.219,11.031,18.385a43.846,43.846,0,0,0,4.97,6.719ZM130.44,228.4a13.915,13.915,0,0,0-5.6-12.88l-6.8-5-14.017-23.56a8,8,0,0,0-9.481-3.473L86.387,186.3a1.9,1.9,0,0,1-1.841-.349A1.891,1.891,0,0,1,84.638,183l1.932-1.447A8,8,0,0,0,88.9,171.5l-13.12-25.6a20.267,20.267,0,0,1,1.938-.788,20.064,20.064,0,0,1,15.257.859l6.07,3.355a7.981,7.981,0,0,0,5.037.912l10.688-1.575.284,2.162a8,8,0,0,0,3.058,5.3l11,8.447-8.44,11a8,8,0,0,0,1.473,11.215l17.4,13.365a13.927,13.927,0,0,0,17.692-.534c2.406,9.155,3.364,20.481-2.883,26.728-4.5,4.5-10.4,5.8-18.037,3.985A38.8,38.8,0,0,1,130.44,228.4ZM192,304H144V284.944l5.742-2.871a43.707,43.707,0,0,0,32.164,1.725l5.034-1.679L192,297.3Zm-4.688-38.871-10.466,3.49a27.971,27.971,0,0,1-32.832-12.146l-5.8-9.662a41.3,41.3,0,0,0,4.279.232,31.737,31.737,0,0,0,23.161-9.386c9.575-9.575,10.429-22.873,8.671-34.249a73.336,73.336,0,0,0,37.89,5.341l9.813,14.719Zm17.823,20.978L201,273.7l31.538-37.846,32.334,32.335ZM409.81,432.254,422.9,414.8l42.036,38.8A46.96,46.96,0,0,1,479.307,480H448v-4.687l5.657-5.656a8,8,0,0,0-1.6-12.553Z"/></g></svg>
